<?xml version="1.0" standalone="no"?>
<!DOCTYPE svg PUBLIC "-//W3C//DTD SVG 20010904//EN"
 "http://www.w3.org/TR/2001/REC-SVG-20010904/DTD/svg10.dtd">
<svg version="1.0" xmlns="http://www.w3.org/2000/svg"
 width="900.000000pt" height="577.000000pt" viewBox="0 0 900.000000 577.000000"
 preserveAspectRatio="xMidYMid meet">

<g transform="translate(0.000000,577.000000) scale(0.100000,-0.100000)"
fill="#000000" stroke="none">
<path d="M4729 5702 c-184 -169 -353 -308 -460 -379 -38 -25 -67 -48 -64 -51
2 -3 11 1 19 7 10 8 16 9 21 1 4 -6 -7 -15 -24 -21 -17 -6 -28 -15 -25 -20 3
-5 -5 -9 -18 -10 -23 -1 -23 -1 2 -9 23 -7 23 -10 3 -14 -5 -1 -17 -6 -27 -13
-19 -10 -19 -11 2 -17 31 -10 27 -26 -7 -26 -16 0 -31 -6 -35 -15 -6 -16 14
-21 30 -6 5 5 20 11 34 13 16 2 25 9 24 19 -1 10 15 25 40 38 22 11 37 21 31
21 -20 1 21 20 43 20 12 0 22 5 22 10 0 6 -5 10 -11 10 -5 0 -7 5 -4 10 3 6
27 11 53 11 29 1 37 4 20 6 -34 5 -35 13 -5 37 86 73 156 136 185 169 19 20
39 37 46 37 6 0 16 10 21 22 6 14 26 27 50 35 22 6 32 12 23 12 -28 1 -21 18
12 33 17 7 29 17 27 23 -2 5 10 22 27 38 20 19 27 31 19 34 -7 3 -13 9 -13 14
0 6 3 8 8 6 4 -2 25 2 47 9 l40 12 -41 1 c-38 1 -49 -5 -115 -67z"/>
<path d="M8790 5650 c-18 -12 -2 -12 25 0 13 6 15 9 5 9 -8 0 -22 -4 -30 -9z"/>
<path d="M5653 5613 c9 -2 23 -2 30 0 6 3 -1 5 -18 5 -16 0 -22 -2 -12 -5z"/>
<path d="M8748 5613 c7 -3 16 -2 19 1 4 3 -2 6 -13 5 -11 0 -14 -3 -6 -6z"/>
<path d="M7818 5573 c7 -3 16 -2 19 1 4 3 -2 6 -13 5 -11 0 -14 -3 -6 -6z"/>
<path d="M8718 5563 c6 -2 18 -2 25 0 6 3 1 5 -13 5 -14 0 -19 -2 -12 -5z"/>
<path d="M8598 5493 c6 -2 18 -2 25 0 6 3 1 5 -13 5 -14 0 -19 -2 -12 -5z"/>
<path d="M8754 5479 c-3 -5 6 -9 20 -9 31 0 34 6 6 13 -11 3 -23 1 -26 -4z"/>
<path d="M8703 5443 c9 -2 25 -2 35 0 9 3 1 5 -18 5 -19 0 -27 -2 -17 -5z"/>
<path d="M5128 5413 c6 -2 18 -2 25 0 6 3 1 5 -13 5 -14 0 -19 -2 -12 -5z"/>
<path d="M3644 5358 c1 -41 5 -45 24 -26 17 17 15 31 -2 25 -10 -4 -16 2 -19
16 -3 12 -4 5 -3 -15z"/>
<path d="M8808 5363 c7 -3 16 -2 19 1 4 3 -2 6 -13 5 -11 0 -14 -3 -6 -6z"/>
<path d="M8658 5333 c7 -3 16 -2 19 1 4 3 -2 6 -13 5 -11 0 -14 -3 -6 -6z"/>
<path d="M3702 5323 c-10 -4 -10 -8 -1 -19 16 -20 29 -17 29 6 0 20 -5 23 -28
13z"/>
<path d="M4443 5313 c9 -2 25 -2 35 0 9 3 1 5 -18 5 -19 0 -27 -2 -17 -5z"/>
<path d="M8667 5280 c-16 -19 -16 -20 1 -21 9 0 12 -3 5 -5 -9 -4 -8 -14 1
-42 12 -34 31 -43 31 -16 0 6 6 18 13 26 10 13 10 17 -3 22 -22 8 -18 31 8 44
21 10 21 11 -8 11 -19 1 -37 -7 -48 -19z"/>
<path d="M698 5273 c7 -3 16 -2 19 1 4 3 -2 6 -13 5 -11 0 -14 -3 -6 -6z"/>
<path d="M3636 5271 c-5 -7 -3 -18 3 -24 6 -6 11 -18 11 -27 0 -19 31 -50 50
-50 10 0 10 3 0 15 -7 9 -11 18 -8 20 8 9 25 -17 46 -70 11 -28 25 -50 31 -49
6 1 26 2 44 3 32 3 32 3 6 12 -28 11 -50 49 -69 124 -10 42 -16 50 -35 50 -18
0 -21 -3 -13 -13 8 -9 7 -11 -7 -6 -10 4 -20 1 -25 -7 -7 -10 -11 -8 -18 10
-6 17 -11 21 -16 12z"/>
<path d="M4164 5255 c-10 -8 -14 -15 -8 -15 6 0 17 7 24 15 16 19 9 19 -16 0z"/>
<path d="M8788 5228 c9 -9 15 -9 24 0 9 9 7 12 -12 12 -19 0 -21 -3 -12 -12z"/>
<path d="M4085 5200 c-3 -5 1 -10 9 -10 9 0 16 5 16 10 0 6 -4 10 -9 10 -6 0
-13 -4 -16 -10z"/>
<path d="M138 5173 c6 -2 18 -2 25 0 6 3 1 5 -13 5 -14 0 -19 -2 -12 -5z"/>
<path d="M4588 5173 c7 -3 16 -2 19 1 4 3 -2 6 -13 5 -11 0 -14 -3 -6 -6z"/>
<path d="M4298 5153 c7 -3 16 -2 19 1 4 3 -2 6 -13 5 -11 0 -14 -3 -6 -6z"/>
<path d="M8695 5140 c3 -5 15 -10 26 -10 10 0 19 5 19 10 0 6 -12 10 -26 10
-14 0 -23 -4 -19 -10z"/>
<path d="M3915 5110 c-33 -16 -53 -29 -45 -29 8 0 40 13 70 29 71 37 53 37
-25 0z"/>
<path d="M8725 5101 c-3 -12 1 -35 10 -55 15 -31 19 -34 36 -23 18 11 18 12 2
17 -11 3 -19 17 -21 35 -4 39 -18 53 -27 26z"/>
<path d="M4208 5083 c6 -2 18 -2 25 0 6 3 1 5 -13 5 -14 0 -19 -2 -12 -5z"/>
<path d="M8788 5083 c6 -2 18 -2 25 0 6 3 1 5 -13 5 -14 0 -19 -2 -12 -5z"/>
<path d="M4128 5073 c6 -2 18 -2 25 0 6 3 1 5 -13 5 -14 0 -19 -2 -12 -5z"/>
<path d="M3770 4978 c-64 -93 -207 -245 -290 -310 -25 -19 -89 -63 -144 -98
-76 -48 -100 -59 -107 -49 -6 9 -3 18 7 26 14 10 11 14 -22 28 -22 9 -52 19
-67 22 -30 6 -59 44 -38 51 15 5 4 22 -15 22 -8 0 -12 -4 -9 -10 3 -5 2 -10
-4 -10 -6 0 -7 -8 -4 -17 5 -12 2 -15 -10 -10 -11 4 -23 -3 -36 -21 -15 -20
-20 -23 -21 -10 0 9 -12 25 -27 36 l-27 19 23 12 c12 7 28 10 35 8 7 -3 19 -1
27 4 10 6 7 9 -12 9 -15 0 -59 13 -98 29 -39 16 -71 26 -71 22 0 -4 21 -15 48
-25 42 -17 47 -22 48 -50 1 -51 36 -83 102 -91 95 -11 141 -26 162 -52 l19
-24 34 23 c19 13 68 45 108 72 91 60 212 160 264 218 82 91 94 106 161 207 60
91 31 66 -36 -31z"/>
<path d="M8968 5063 c6 -2 18 -2 25 0 6 3 1 5 -13 5 -14 0 -19 -2 -12 -5z"/>
<path d="M4063 5053 c15 -2 37 -2 50 0 12 2 0 4 -28 4 -27 0 -38 -2 -22 -4z"/>
<path d="M8928 5043 c6 -2 18 -2 25 0 6 3 1 5 -13 5 -14 0 -19 -2 -12 -5z"/>
<path d="M8835 5030 c-3 -6 1 -7 9 -4 18 7 21 14 7 14 -6 0 -13 -4 -16 -10z"/>
<path d="M4183 5023 c9 -2 23 -2 30 0 6 3 -1 5 -18 5 -16 0 -22 -2 -12 -5z"/>
<path d="M4023 5003 c9 -2 25 -2 35 0 9 3 1 5 -18 5 -19 0 -27 -2 -17 -5z"/>
<path d="M0 4955 c0 -21 5 -35 13 -35 9 0 9 -2 -1 -9 -11 -7 -11 -9 2 -14 8
-3 29 -33 46 -67 17 -33 35 -60 40 -60 6 0 10 -7 10 -15 0 -8 5 -15 11 -15 5
0 8 -4 4 -9 -3 -5 -1 -12 5 -16 17 -11 11 35 -8 63 -40 58 -101 181 -92 184 6
2 1 9 -10 16 -19 11 -20 10 -20 -23z"/>
<path d="M3973 4963 c9 -2 23 -2 30 0 6 3 -1 5 -18 5 -16 0 -22 -2 -12 -5z"/>
<path d="M8900 4960 c-8 -5 -28 -12 -45 -16 -26 -5 -27 -7 -11 -13 18 -7 18
-8 2 -14 -10 -4 -27 -2 -38 4 -21 11 -21 12 8 24 l29 13 -32 1 c-25 1 -33 -3
-33 -16 0 -29 24 -66 43 -69 27 -4 30 -10 18 -32 -14 -26 -14 -72 0 -72 5 0 8
-4 5 -9 -3 -5 1 -22 9 -37 8 -16 15 -35 15 -41 0 -7 12 -13 26 -13 22 0 25 2
14 15 -10 12 -10 15 1 15 11 0 11 2 -1 10 -12 8 -12 10 3 16 22 8 22 24 0 24
-14 0 -15 2 -5 9 11 7 11 9 -1 14 -20 7 -12 44 16 75 11 12 16 22 11 23 -5 0
0 4 11 9 18 8 18 9 -5 9 -19 1 -22 4 -11 10 19 12 22 51 4 51 -8 0 -11 5 -8
10 7 12 -4 12 -25 0z m10 -40 c0 -5 -9 -10 -21 -10 -11 0 -17 5 -14 10 3 6 13
10 21 10 8 0 14 -4 14 -10z m-38 -77 c-6 -2 -10 -9 -6 -14 3 -5 -2 -9 -10 -9
-10 0 -13 6 -10 15 4 8 14 15 23 14 10 0 11 -2 3 -6z"/>
<path d="M4128 4923 c7 -3 16 -2 19 1 4 3 -2 6 -13 5 -11 0 -14 -3 -6 -6z"/>
<path d="M158 4913 c7 -3 16 -2 19 1 4 3 -2 6 -13 5 -11 0 -14 -3 -6 -6z"/>
<path d="M20 4858 c0 -9 5 -20 10 -23 13 -8 13 5 0 25 -8 13 -10 13 -10 -2z"/>
<path d="M3838 4843 c6 -2 18 -2 25 0 6 3 1 5 -13 5 -14 0 -19 -2 -12 -5z"/>
<path d="M3908 4843 c7 -3 16 -2 19 1 4 3 -2 6 -13 5 -11 0 -14 -3 -6 -6z"/>
<path d="M8963 4823 c9 -2 23 -2 30 0 6 3 -1 5 -18 5 -16 0 -22 -2 -12 -5z"/>
<path d="M8975 4750 c-3 -5 1 -10 9 -10 9 0 16 5 16 10 0 6 -4 10 -9 10 -6 0
-13 -4 -16 -10z"/>
<path d="M4388 4733 c7 -3 16 -2 19 1 4 3 -2 6 -13 5 -11 0 -14 -3 -6 -6z"/>
<path d="M100 4713 c0 -12 47 -53 61 -53 6 0 8 -7 4 -17 -4 -12 -3 -15 4 -8
13 13 2 57 -12 48 -7 -4 -8 0 -3 13 6 15 5 16 -5 7 -10 -10 -16 -9 -31 4 -10
9 -18 12 -18 6z"/>
<path d="M2843 4693 c-4 -9 -1 -19 5 -21 7 -2 12 -10 12 -18 0 -15 27 -18 48
-5 11 7 11 9 -2 14 -9 4 -16 2 -16 -3 0 -6 -5 -10 -10 -10 -7 0 -7 6 -1 18 7
13 6 23 -1 30 -17 17 -28 15 -35 -5z"/>
<path d="M3783 4703 c15 -2 37 -2 50 0 12 2 0 4 -28 4 -27 0 -38 -2 -22 -4z"/>
<path d="M4093 4693 c9 -2 23 -2 30 0 6 3 -1 5 -18 5 -16 0 -22 -2 -12 -5z"/>
<path d="M8930 4675 c-7 -8 -19 -15 -26 -15 -22 0 -17 -26 31 -169 57 -169 66
-183 63 -108 -1 31 -5 57 -9 57 -4 0 -16 24 -27 53 -33 89 -35 97 -19 97 9 0
19 -19 27 -47 6 -27 16 -59 20 -73 8 -25 8 -24 9 5 0 17 -6 52 -14 78 -13 42
-13 49 0 54 23 8 18 23 -6 20 -31 -3 -34 17 -4 33 14 7 25 17 25 22 0 14 -57
9 -70 -7z"/>
<path d="M2830 4646 c0 -9 5 -16 10 -16 6 0 10 4 10 9 0 6 -4 13 -10 16 -5 3
-10 -1 -10 -9z"/>
<path d="M3030 4650 c0 -5 5 -10 10 -10 6 0 10 5 10 10 0 6 -4 10 -10 10 -5 0
-10 -4 -10 -10z"/>
<path d="M6980 4653 c-104 -34 -204 -127 -241 -225 -20 -53 -24 -81 -24 -173
0 -96 3 -116 24 -155 13 -25 37 -57 53 -73 55 -51 86 -62 183 -62 79 0 97 3
150 29 38 19 85 55 130 101 76 78 151 193 135 209 -13 13 -34 -6 -97 -91 -57
-78 -148 -153 -211 -174 -51 -18 -150 -16 -187 3 -118 63 -161 261 -91 416 53
114 137 166 246 148 45 -7 49 0 20 32 -20 21 -55 27 -90 15z"/>
<path d="M196 4620 c4 -14 7 -30 7 -36 0 -6 6 -11 13 -11 14 0 8 22 -14 52
-13 19 -14 19 -6 -5z"/>
<path d="M3943 4603 c9 -2 23 -2 30 0 6 3 -1 5 -18 5 -16 0 -22 -2 -12 -5z"/>
<path d="M4088 4573 c6 -2 18 -2 25 0 6 3 1 5 -13 5 -14 0 -19 -2 -12 -5z"/>
<path d="M3878 4553 c7 -3 16 -2 19 1 4 3 -2 6 -13 5 -11 0 -14 -3 -6 -6z"/>
<path d="M237 4537 c-3 -8 1 -14 8 -14 7 0 11 6 8 14 -3 7 -6 13 -8 13 -2 0
-5 -6 -8 -13z"/>
<path d="M3528 4433 c7 -3 16 -2 19 1 4 3 -2 6 -13 5 -11 0 -14 -3 -6 -6z"/>
<path d="M3575 4430 c3 -5 10 -10 16 -10 5 0 9 5 9 10 0 6 -7 10 -16 10 -8 0
-12 -4 -9 -10z"/>
<path d="M6408 4428 c-16 -14 -22 -39 -63 -263 -14 -77 -28 -146 -30 -153 -7
-20 -26 -6 -148 115 -111 109 -195 173 -228 173 -9 0 -27 -9 -40 -19 -23 -18
-23 -20 -11 -82 58 -284 115 -536 125 -546 16 -15 77 9 77 31 0 9 -9 39 -20
68 -25 63 -95 342 -105 416 -4 28 -3 52 2 52 4 0 89 -83 189 -185 99 -102 188
-185 197 -185 19 0 18 -3 48 190 25 165 47 243 69 248 11 2 36 -40 83 -140 38
-79 87 -176 110 -216 36 -64 44 -73 67 -70 27 3 40 39 22 61 -6 7 -49 91 -97
187 -48 96 -95 183 -104 194 -9 10 -15 21 -14 25 3 12 -62 90 -85 100 -28 13
-25 14 -44 -1z"/>
<path d="M340 4353 c0 -13 5 -23 10 -23 13 0 13 11 0 30 -8 12 -10 11 -10 -7z"/>
<path d="M360 4308 c0 -9 5 -20 10 -23 13 -8 13 5 0 25 -8 13 -10 13 -10 -2z"/>
<path d="M3283 4273 c9 -2 23 -2 30 0 6 3 -1 5 -18 5 -16 0 -22 -2 -12 -5z"/>
<path d="M3184 4248 c-3 -4 13 -8 35 -8 23 0 41 2 41 4 0 8 -71 12 -76 4z"/>
<path d="M395 4240 c3 -5 8 -10 11 -10 2 0 4 5 4 10 0 6 -5 10 -11 10 -5 0 -7
-4 -4 -10z"/>
<path d="M3628 4233 c7 -3 16 -2 19 1 4 3 -2 6 -13 5 -11 0 -14 -3 -6 -6z"/>
<path d="M7900 4180 c-79 -21 -241 -75 -284 -94 -41 -18 -165 -66 -196 -76
-14 -5 -63 -24 -110 -44 -46 -20 -88 -36 -92 -36 -4 0 -36 -13 -70 -29 -35
-16 -83 -36 -108 -44 -25 -8 -74 -29 -110 -45 -36 -16 -99 -44 -140 -61 -41
-18 -84 -37 -95 -42 -26 -11 -118 -47 -170 -65 -22 -8 -59 -24 -82 -34 -24
-11 -45 -20 -48 -20 -6 0 -107 -45 -170 -75 -27 -14 -54 -25 -60 -26 -17 -1
-79 -29 -105 -47 -14 -9 -28 -17 -31 -17 -8 0 -110 -45 -129 -56 -24 -15 -50
-26 -136 -59 -141 -55 -171 -83 -111 -104 23 -8 42 -3 122 38 52 26 96 46 98
44 2 -2 11 5 21 15 10 9 24 17 32 17 8 0 22 4 32 9 68 35 216 101 226 101 7 0
24 8 37 18 13 10 53 29 89 41 36 13 90 36 120 52 30 16 61 29 67 29 7 0 36 11
65 24 102 46 194 85 273 117 141 55 169 67 245 99 41 17 91 37 110 44 79 30
198 79 250 103 30 14 84 36 120 49 258 92 362 125 413 130 60 7 70 19 39 47
-22 20 -27 20 -112 -3z"/>
<path d="M3161 4179 c-14 -6 -30 -8 -38 -5 -7 3 -15 1 -18 -4 -4 -6 36 -10
102 -10 63 0 102 4 93 9 -24 14 -113 20 -139 10z"/>
<path d="M3065 4150 c-4 -6 6 -10 22 -10 27 -1 27 -1 9 -15 -11 -8 -30 -15
-42 -15 -12 0 -29 -11 -38 -25 -9 -14 -24 -25 -34 -25 -9 -1 -35 -23 -56 -51
-51 -64 -311 -328 -401 -406 -141 -123 -391 -317 -514 -398 -22 -15 -38 -32
-35 -36 3 -5 2 -8 -3 -7 -14 4 -53 -13 -53 -23 0 -6 5 -7 12 -3 7 4 8 3 4 -5
-4 -6 -13 -11 -19 -10 -28 3 -39 -2 -33 -16 3 -8 1 -15 -4 -15 -6 0 -10 5 -10
11 0 5 -5 7 -10 4 -7 -4 -7 -12 0 -25 8 -14 5 -19 -11 -23 -16 -4 -18 -3 -9 8
8 10 8 15 -1 21 -7 4 -9 3 -6 -3 4 -6 0 -16 -8 -23 -8 -7 -12 -17 -9 -22 10
-16 68 3 98 33 17 16 34 29 38 29 5 0 7 4 4 9 -6 9 15 21 44 27 8 2 16 8 18
13 2 6 11 11 20 11 15 1 14 3 -2 15 -18 13 -18 15 -3 15 36 0 97 25 92 37 -2
7 2 13 10 13 8 0 27 11 42 25 15 14 33 29 40 35 7 6 29 14 50 19 24 6 30 9 16
10 -21 1 -34 21 -14 21 5 0 30 16 55 35 32 24 58 35 84 36 31 2 32 3 9 6 l-28
4 38 40 c26 27 47 39 66 39 15 0 27 5 27 10 0 6 -8 10 -17 10 -11 0 -5 7 15
17 18 8 50 33 71 54 26 26 48 39 67 40 17 1 22 3 12 6 -10 2 -18 9 -18 14 0 5
8 13 18 16 9 4 23 15 30 25 19 26 66 48 104 48 30 1 31 2 15 14 -17 13 -16 15
9 35 15 12 33 21 41 21 8 0 11 5 8 10 -4 6 14 10 47 11 l53 2 -37 10 -37 10
40 29 c22 16 38 32 35 36 -3 5 15 17 40 28 24 10 44 22 44 27 0 4 15 7 33 8
25 0 28 2 13 8 -18 7 -16 10 15 33 19 15 45 28 59 30 23 4 23 5 -10 15 -30 10
-32 11 -10 12 20 1 22 3 10 11 -11 7 -6 8 16 4 17 -3 34 -2 38 4 3 6 -14 13
-42 17 -39 6 -43 9 -27 16 16 8 15 8 -7 4 -15 -3 -38 -1 -52 5 -16 6 -27 6
-31 0z"/>
<path d="M5742 4122 c-17 -17 -19 -26 -12 -49 5 -15 36 -111 69 -213 76 -239
95 -280 126 -280 44 0 50 -25 -83 356 -76 217 -73 213 -100 186z"/>
<path d="M3358 4123 c7 -3 16 -2 19 1 4 3 -2 6 -13 5 -11 0 -14 -3 -6 -6z"/>
<path d="M520 4053 c0 -13 5 -23 10 -23 13 0 13 11 0 30 -8 12 -10 11 -10 -7z"/>
<path d="M568 3969 c-6 -17 33 -99 48 -99 6 0 24 -17 40 -37 40 -53 83 -97 89
-91 3 2 -9 17 -26 32 -17 15 -28 34 -25 41 3 9 0 12 -9 9 -8 -4 -18 7 -26 30
-7 20 -16 36 -20 36 -4 0 -9 9 -12 21 -3 12 -10 18 -15 15 -5 -3 -16 8 -25 25
-8 17 -16 26 -19 18z"/>
<path d="M3148 3943 c7 -3 16 -2 19 1 4 3 -2 6 -13 5 -11 0 -14 -3 -6 -6z"/>
<path d="M3058 3933 c7 -3 16 -2 19 1 4 3 -2 6 -13 5 -11 0 -14 -3 -6 -6z"/>
<path d="M3018 3913 c7 -3 16 -2 19 1 4 3 -2 6 -13 5 -11 0 -14 -3 -6 -6z"/>
<path d="M4651 3885 c-30 -14 -61 -34 -70 -43 -20 -23 -145 -84 -163 -80 -7 1
-39 -6 -70 -16 -31 -10 -65 -16 -74 -12 -28 11 -124 -34 -124 -57 0 -17 5 -19
43 -13 23 4 136 38 250 77 115 39 210 69 211 67 6 -6 26 -47 26 -51 0 -2 -33
-16 -72 -32 -40 -15 -81 -34 -90 -43 -10 -8 -24 -12 -33 -8 -10 4 -14 2 -9 -5
4 -7 0 -9 -13 -5 -11 3 -40 -1 -64 -10 -24 -9 -64 -17 -89 -19 -57 -3 -120
-29 -120 -49 0 -24 51 -20 165 13 209 61 415 142 415 163 0 16 -53 148 -59
148 -3 0 -30 -12 -60 -25z"/>
<path d="M3128 3893 c7 -3 16 -2 19 1 4 3 -2 6 -13 5 -11 0 -14 -3 -6 -6z"/>
<path d="M3030 3850 c8 -5 24 -9 35 -9 l20 0 -20 9 c-11 5 -27 9 -35 9 -13 1
-13 0 0 -9z"/>
<path d="M3118 3823 c7 -3 16 -2 19 1 4 3 -2 6 -13 5 -11 0 -14 -3 -6 -6z"/>
<path d="M3088 3783 c6 -2 18 -2 25 0 6 3 1 5 -13 5 -14 0 -19 -2 -12 -5z"/>
<path d="M4620 3780 c0 -5 7 -10 15 -10 8 0 15 5 15 10 0 6 -7 10 -15 10 -8 0
-15 -4 -15 -10z"/>
<path d="M750 3726 c0 -14 51 -98 57 -93 2 3 -9 27 -26 53 -17 27 -31 45 -31
40z"/>
<path d="M676 3677 c1 -19 9 -48 18 -65 19 -36 20 -42 6 -42 -5 0 -10 6 -10
13 0 8 -12 24 -26 38 -29 26 -31 30 26 -66 16 -27 41 -70 55 -95 51 -91 113
-184 125 -188 9 -3 9 1 0 19 l-11 24 20 -22 c10 -13 25 -23 32 -23 10 0 10 -3
1 -12 -21 -21 -13 -31 23 -25 39 6 43 2 18 -25 -15 -17 -15 -18 1 -18 9 0 30
7 46 15 30 16 36 49 12 78 -9 10 -8 19 4 35 14 20 14 22 0 22 -9 0 -16 5 -16
10 0 6 -5 10 -11 10 -7 0 -9 -10 -7 -25 3 -14 1 -25 -3 -25 -5 0 -9 5 -9 11 0
5 -14 23 -31 38 -27 25 -30 31 -19 51 10 20 10 21 -6 12 -9 -5 -25 -7 -35 -5
-22 6 -27 -25 -7 -45 6 -6 8 -15 4 -19 -13 -14 -37 30 -31 57 4 16 2 20 -3 12
-7 -10 -12 -8 -24 10 -8 13 -17 31 -21 41 -8 21 -27 23 -27 2 0 -8 5 -15 12
-15 6 0 8 -3 4 -7 -9 -9 -45 36 -46 56 0 11 4 9 16 -5 14 -17 15 -17 10 -1 -3
10 -6 21 -6 23 0 2 -9 4 -20 4 -22 0 -41 31 -22 38 8 2 5 15 -8 40 -26 48 -25
60 2 36 17 -15 16 -11 -7 24 -15 23 -28 42 -29 42 -1 0 -1 -15 0 -33z"/>
<path d="M831 3589 c-1 -8 6 -24 15 -35 15 -19 15 -19 6 1 -5 11 -12 27 -15
35 -5 13 -6 13 -6 -1z"/>
<path d="M3018 3573 c6 -2 18 -2 25 0 6 3 1 5 -13 5 -14 0 -19 -2 -12 -5z"/>
<path d="M4791 3520 c-34 -15 -66 -31 -70 -37 -11 -17 -156 -83 -182 -83 -15
0 -46 -7 -69 -15 -29 -10 -47 -12 -55 -5 -12 10 -51 -1 -112 -32 -29 -15 -31
-48 -2 -48 24 0 106 18 134 30 11 4 67 25 125 45 58 20 134 47 169 60 l63 24
19 -22 c16 -20 18 -20 19 -4 0 10 5 15 10 12 20 -13 9 -33 -27 -50 -21 -9 -69
-32 -106 -51 -38 -19 -72 -32 -77 -29 -12 8 -41 -6 -34 -16 3 -5 -2 -6 -10 -3
-8 3 -38 -2 -66 -11 -51 -17 -52 -17 -67 5 -9 12 -18 18 -22 12 -3 -5 -27 -18
-52 -30 l-47 -20 -40 23 c-22 13 -69 38 -104 57 -34 19 -80 45 -101 56 -20 12
-39 22 -42 22 -3 0 -26 10 -52 22 -27 11 -75 23 -108 25 -82 6 -123 -20 -141
-92 -15 -60 -15 -44 1 -112 8 -34 10 -59 4 -61 -5 -2 -19 -12 -31 -23 l-23
-20 28 17 c15 9 29 15 31 13 8 -12 46 -110 46 -121 0 -7 34 -82 75 -167 85
-173 86 -151 -8 -212 -26 -17 -46 -34 -43 -37 3 -2 33 16 67 41 34 26 66 44
70 41 15 -9 10 -32 -8 -43 -10 -5 -14 -13 -10 -17 4 -4 13 0 20 10 12 17 14
17 27 1 8 -10 10 -19 4 -23 -5 -4 -39 -27 -74 -51 -79 -54 -75 -50 -68 -57 4
-3 38 17 76 45 38 28 75 51 81 51 26 0 8 -29 -36 -58 -63 -41 -145 -98 -160
-112 -7 -6 -28 -19 -46 -30 l-34 -20 1 43 c2 85 -78 164 -123 123 -14 -13 -21
-14 -26 -6 -6 9 -10 9 -17 -1 -5 -9 -6 -3 -2 16 4 17 12 33 18 38 6 4 -2 5
-18 3 -30 -5 -48 -16 -27 -16 7 0 11 -7 8 -14 -7 -17 24 -96 36 -96 4 0 13 13
20 29 10 23 16 27 34 20 22 -8 53 -56 53 -83 0 -21 -18 -30 -34 -17 -16 13
-46 4 -46 -14 0 -17 23 -35 57 -44 28 -7 28 -7 -30 -44 -67 -43 -84 -46 -61
-12 22 33 12 68 -31 112 -19 20 -32 39 -29 44 5 9 -12 46 -30 65 -15 15 -48
14 -66 -2 -20 -17 -27 -88 -8 -81 8 2 12 17 10 36 -2 27 1 31 23 31 19 0 25
-6 30 -32 3 -18 4 -42 2 -53 -1 -12 5 -21 18 -23 42 -8 66 -82 26 -82 -11 0
-23 5 -26 10 -4 6 -13 4 -22 -6 -24 -24 -4 -48 43 -54 l39 -5 -35 -26 c-19
-15 -82 -58 -140 -95 -134 -88 -125 -82 -118 -89 6 -6 133 74 310 197 42 29
106 71 142 93 36 22 116 75 178 118 141 98 145 100 151 83 3 -8 -22 -33 -69
-65 -41 -29 -74 -56 -74 -61 0 -5 36 15 80 45 44 30 82 55 85 55 3 0 5 -8 5
-17 -1 -11 -31 -38 -74 -68 -41 -27 -72 -53 -70 -57 5 -8 68 29 124 74 20 17
38 24 43 19 5 -5 16 -7 24 -4 12 5 14 1 8 -15 -8 -26 2 -28 27 -5 14 13 18 13
18 2 -1 -18 -25 -51 -33 -43 -5 5 -75 -39 -133 -85 -53 -42 -17 -29 56 19 41
28 79 50 84 50 6 0 23 12 38 27 15 15 28 22 28 16 0 -16 -41 -56 -85 -83 -22
-13 -46 -30 -53 -37 -7 -7 -33 -25 -58 -39 -24 -14 -44 -33 -44 -41 0 -13 4
-13 28 3 149 97 199 132 214 149 9 11 20 17 24 12 11 -10 -42 -62 -101 -99
-57 -36 -95 -68 -95 -80 0 -7 44 19 114 67 38 26 137 125 125 125 -5 0 -9 6
-9 14 0 24 49 5 79 -31 16 -20 34 -32 40 -29 6 4 16 4 21 1 16 -10 -7 -43 -43
-61 l-32 -16 23 21 c21 21 22 41 1 41 -6 0 -8 -4 -5 -8 7 -12 -48 -64 -57 -55
-4 3 5 19 20 35 14 15 23 31 19 35 -4 5 -13 1 -19 -7 -17 -22 -68 -60 -80 -60
-6 0 6 18 27 39 21 22 37 44 35 50 -2 5 -22 -12 -44 -38 -22 -27 -65 -66 -96
-86 -31 -20 -65 -45 -74 -56 -27 -29 1 -24 44 9 20 16 53 39 75 52 35 21 38
21 34 4 -1 -10 -36 -40 -77 -68 -41 -28 -69 -52 -63 -54 6 -2 44 20 85 47 81
55 87 58 87 37 0 -7 -34 -35 -75 -62 -70 -46 -88 -64 -65 -64 6 0 44 23 85 52
67 45 98 57 81 30 -7 -12 -352 -242 -363 -242 -5 0 -18 -7 -28 -15 -57 -43
-352 -235 -362 -235 -29 0 -9 20 57 59 38 23 72 46 75 51 14 22 -24 7 -90 -35
-38 -25 -73 -45 -77 -45 -22 0 0 22 67 68 94 63 85 77 -11 17 -75 -48 -132
-63 -83 -22 15 12 52 37 83 56 31 18 56 37 56 42 0 14 -11 10 -46 -16 -18 -14
-36 -25 -40 -25 -4 0 -22 -11 -40 -25 -18 -14 -39 -22 -48 -19 -10 4 -18 0
-22 -10 -3 -9 -17 -16 -29 -16 -13 0 -27 -4 -30 -10 -4 -6 7 -10 24 -10 17 0
31 -4 31 -8 0 -5 -25 -7 -55 -5 -73 4 -71 -14 3 -22 89 -10 100 -12 59 -14
-23 0 -40 -7 -43 -16 -4 -9 -19 -15 -36 -15 -17 0 -27 -4 -23 -10 3 -5 1 -10
-4 -10 -6 0 -10 -6 -9 -12 2 -9 -10 -12 -44 -10 -30 2 -48 0 -48 -7 0 -6 9
-11 19 -11 12 0 21 -9 25 -24 3 -14 14 -27 24 -29 16 -4 16 -5 0 -6 -28 -2 -9
-31 21 -31 36 0 59 -15 36 -24 -9 -3 -28 -6 -41 -6 -39 0 -28 -16 19 -27 40
-10 41 -11 10 -12 -31 -1 -49 -21 -19 -21 8 0 16 -7 20 -15 3 -10 -1 -15 -12
-15 -9 0 -24 -5 -32 -11 -11 -8 -6 -9 21 -7 27 3 35 0 32 -9 -3 -7 0 -13 7
-13 7 0 10 -7 6 -16 -4 -12 -1 -14 13 -9 11 3 22 1 26 -5 3 -6 -4 -10 -17 -11
-23 -1 -23 -1 2 -8 20 -6 11 -9 -40 -16 -137 -18 -200 -15 -200 10 0 7 -15 61
-34 121 -18 60 -35 116 -37 124 -2 8 -6 17 -9 20 -3 3 -11 17 -17 32 -9 19
-17 26 -28 22 -14 -6 -14 -9 0 -31 10 -15 14 -34 10 -52 -3 -15 -1 -40 4 -54
11 -28 30 -185 36 -292 13 -235 17 -280 30 -312 8 -19 15 -65 15 -102 0 -64
-6 -82 -58 -185 -13 -26 -13 -30 1 -40 10 -8 12 -17 6 -28 -6 -11 -4 -18 7
-22 13 -5 12 -10 -8 -37 -13 -17 -34 -41 -46 -54 -14 -14 -26 -41 -29 -65 -3
-22 -10 -43 -14 -46 -5 -3 -9 -13 -9 -23 0 -10 -7 -24 -15 -31 -8 -7 -15 -21
-15 -31 0 -11 -7 -19 -15 -19 -8 0 -15 -5 -15 -11 0 -6 -6 -9 -14 -6 -22 9
-33 -12 -41 -75 -6 -45 -11 -58 -24 -58 -28 0 -64 -45 -56 -69 6 -21 11 -21
301 -21 189 0 294 4 294 10 0 14 153 13 167 -1 9 -9 36 -6 107 10 53 12 96 27
96 32 0 13 -11 12 -92 -11 -85 -23 -108 -25 -108 -7 0 8 6 14 13 14 23 0 202
46 214 56 14 10 7 31 -8 22 -5 -4 -17 -8 -26 -10 -10 -2 -54 -13 -97 -24 -89
-23 -106 -25 -106 -11 0 5 19 14 43 20 102 26 151 43 140 47 -18 6 -203 -38
-203 -48 0 -10 -100 -12 -124 -3 -38 14 -11 25 57 23 46 -1 71 2 70 9 -2 6 40
21 92 33 53 12 98 25 101 30 8 13 -3 11 -91 -11 -43 -11 -86 -20 -97 -20 -32
0 -20 28 15 33 48 7 147 34 154 41 15 15 -8 12 -97 -12 -97 -26 -212 -35 -207
-17 1 6 26 10 55 10 35 0 52 4 52 13 0 6 9 12 20 12 22 0 172 38 179 46 11 11
-43 2 -134 -22 -55 -14 -119 -25 -142 -25 -24 1 -43 -3 -43 -9 0 -5 -18 -10
-41 -10 -28 0 -39 4 -36 13 2 6 19 12 38 11 19 0 39 6 45 14 8 11 23 14 57 10
25 -3 47 -2 49 2 2 7 245 74 398 111 56 13 123 29 150 35 76 16 243 61 338 89
16 6 22 3 22 -8 0 -15 -59 -37 -140 -53 -26 -6 -44 -24 -22 -24 15 0 88 21
108 31 24 12 64 9 66 -6 0 -5 -37 -20 -83 -33 -86 -24 -96 -28 -87 -37 3 -3
24 1 47 9 23 9 44 15 46 15 3 0 22 5 42 10 40 11 48 9 40 -11 -4 -12 -142 -55
-159 -50 -5 1 -8 -2 -8 -8 0 -14 16 -13 98 10 86 24 82 24 82 5 0 -8 -17 -19
-42 -26 -54 -14 -56 -15 -95 -24 -18 -4 -33 -11 -33 -16 0 -12 6 -12 85 11 38
11 79 20 90 20 42 0 -10 -28 -85 -45 -41 -10 -79 -20 -85 -24 -5 -3 -16 -6
-23 -7 -18 -3 -27 -12 -19 -20 3 -4 53 6 109 21 123 33 120 33 124 20 3 -6
-36 -22 -86 -35 -49 -13 -90 -28 -90 -32 0 -12 23 -10 69 6 62 22 124 30 119
15 -2 -7 -43 -24 -91 -37 -48 -14 -87 -28 -87 -33 0 -10 35 -2 168 37 15 4 22
2 22 -8 0 -13 -125 -58 -162 -58 -10 0 -18 -4 -18 -10 0 -15 25 -12 102 10 64
20 95 20 83 1 -2 -5 -19 -11 -37 -15 -70 -13 -138 -39 -138 -52 0 -11 4 -12
18 -4 30 18 161 49 167 40 7 -11 -2 -16 -45 -25 -19 -3 -71 -19 -114 -33 -109
-37 -57 -44 58 -8 91 29 102 30 111 17 3 -6 -16 -16 -42 -24 -44 -13 -18 -14
292 -15 239 -1 335 1 323 9 -10 5 -18 14 -18 19 0 5 -13 24 -30 42 -30 33 -37
48 -21 48 4 0 24 12 44 28 19 15 63 46 96 70 33 24 66 51 73 60 7 9 -21 -9
-62 -39 -41 -30 -97 -70 -124 -89 l-49 -33 -18 24 c-10 14 -40 49 -68 79 -46
50 -49 56 -33 68 69 53 75 65 10 20 -14 -10 -31 -18 -37 -18 -19 0 -12 27 12
45 21 16 20 16 -7 0 -28 -17 -29 -17 -52 11 -13 16 -35 42 -49 59 -14 16 -25
32 -25 36 0 4 19 21 43 38 23 17 47 34 52 38 116 92 255 199 310 238 65 45
183 138 281 220 35 29 43 32 48 18 4 -9 -1 -21 -11 -28 -10 -7 -30 -23 -44
-36 -14 -13 -39 -34 -54 -46 -16 -13 -27 -25 -24 -27 3 -3 36 19 74 49 67 52
95 66 95 46 0 -6 -26 -30 -58 -54 -62 -48 -90 -77 -75 -77 5 0 38 25 73 55 36
30 71 53 78 50 8 -3 6 9 -7 33 -22 43 -57 150 -50 155 2 1 49 20 104 41 126
49 235 98 235 106 0 24 -45 133 -57 137 -18 7 -125 -49 -172 -89 -18 -16 -40
-27 -48 -24 -9 4 -11 2 -7 -6 5 -8 2 -9 -10 -5 -9 4 -34 -1 -56 -9 -39 -16
-77 -13 -66 5 4 5 3 11 -1 13 -8 3 -64 152 -67 176 0 8 42 29 109 53 171 63
235 95 235 120 0 28 -52 119 -67 119 -23 0 -126 -54 -157 -83 -17 -15 -37 -25
-44 -22 -7 3 -11 1 -8 -4 7 -10 -22 -23 -34 -16 -5 3 -26 -1 -47 -9 -21 -8
-56 -17 -78 -20 l-40 -6 -43 98 c-23 54 -42 101 -42 104 0 3 12 9 28 12 33 9
207 75 320 123 92 40 89 31 46 129 -13 30 -28 54 -34 54 -18 0 -130 -61 -138
-75 -12 -21 -80 -57 -115 -60 -18 -2 -64 -11 -101 -20 -37 -9 -69 -15 -70 -14
-7 10 -86 201 -86 209 0 6 7 10 16 10 8 0 36 9 62 19 106 44 185 73 205 76 16
2 120 45 144 60 6 3 -30 110 -44 131 l-14 22 -56 -24 c-30 -14 -90 -45 -132
-69 -42 -24 -85 -44 -96 -43 -11 1 -48 -7 -83 -17 -34 -10 -64 -16 -66 -14 -6
8 -86 200 -86 207 0 4 46 22 103 40 97 32 327 120 337 129 8 7 -44 145 -57
150 -16 6 -118 -42 -163 -77 -37 -30 -99 -52 -190 -69 -30 -6 -64 -13 -75 -16
-17 -5 -25 7 -58 87 -20 51 -37 98 -37 104 0 6 66 34 148 63 166 59 280 111
281 127 2 23 -48 129 -62 132 -15 3 -127 -43 -137 -56 -8 -12 -102 -72 -114
-73 -32 -2 -68 -9 -120 -24 -31 -9 -59 -15 -60 -13 -9 12 -86 198 -86 206 0 6
10 14 23 17 38 12 270 95 302 109 17 7 44 19 62 26 51 20 54 29 24 102 -14 36
-28 69 -31 71 -3 2 -34 -8 -69 -23z m-364 -316 c-3 -3 -12 -4 -19 -1 -8 3 -5
6 6 6 11 1 17 -2 13 -5z m521 -129 c7 -14 12 -28 12 -30 0 -3 -22 -14 -50 -26
-27 -12 -55 -27 -61 -35 -6 -8 -15 -11 -20 -8 -5 3 -9 1 -9 -4 0 -12 -56 -36
-67 -29 -5 3 -40 -3 -78 -14 -38 -10 -70 -18 -71 -16 -1 1 -5 13 -8 27 -6 24
-1 27 161 92 92 36 171 67 174 67 3 1 11 -10 17 -24z m33 -18 c-10 -9 -11 -8
-5 6 3 10 9 15 12 12 3 -3 0 -11 -7 -18z m119 -337 c11 -11 20 -24 20 -28 0
-5 -26 -19 -57 -32 -32 -13 -64 -30 -72 -37 -7 -8 -20 -12 -28 -9 -8 3 -12 2
-9 -3 3 -5 -12 -13 -34 -19 -22 -5 -38 -6 -35 -2 3 4 -27 -2 -65 -13 -39 -11
-72 -18 -74 -16 -3 2 -7 15 -11 29 -5 24 -1 27 162 86 92 34 171 62 176 63 4
1 16 -8 27 -19z m134 -347 c3 -10 9 -24 12 -31 4 -8 -15 -22 -53 -39 -32 -15
-63 -33 -69 -41 -7 -9 -18 -13 -28 -9 -10 4 -15 3 -11 -3 7 -11 5 -11 -35 -15
-14 -1 -53 -10 -88 -20 -34 -10 -64 -16 -66 -14 -3 2 -7 16 -11 32 -5 18 -3
27 5 27 6 0 75 25 152 56 102 40 143 52 148 43 5 -8 10 -5 15 10 8 26 20 27
29 4z m-777 1 c-3 -3 -12 -4 -19 -1 -8 3 -5 6 6 6 11 1 17 -2 13 -5z m823 -14
c0 -5 -5 -10 -11 -10 -5 0 -7 5 -4 10 3 6 8 10 11 10 2 0 4 -4 4 -10z m-950
-170 c0 -5 -34 -33 -76 -61 -42 -29 -72 -55 -66 -57 6 -2 44 19 85 47 53 35
81 48 96 44 21 -5 21 -6 -5 -19 -14 -8 -31 -11 -37 -7 -6 3 -7 1 -3 -5 4 -7
-16 -26 -51 -49 -32 -20 -60 -39 -62 -40 -2 -2 -2 -6 2 -9 7 -8 57 20 122 69
30 22 60 37 75 36 50 -2 67 3 35 11 l-30 8 33 1 c17 0 32 -3 32 -8 0 -6 21
-11 46 -13 37 -2 48 -8 62 -30 9 -15 14 -30 11 -32 -3 -3 -40 -7 -81 -10 -60
-3 -75 -1 -72 9 3 7 1 16 -5 20 -6 3 -14 0 -17 -8 -3 -8 -39 -36 -80 -62 -41
-26 -74 -51 -74 -56 0 -13 9 -11 39 10 15 11 34 21 41 23 7 2 26 15 42 29 17
16 39 26 53 25 28 -1 35 -16 8 -16 -10 0 -44 -18 -76 -40 -31 -22 -61 -40 -65
-40 -12 -1 -52 -38 -52 -49 0 -18 20 -12 59 17 20 16 54 39 76 52 22 13 49 31
60 40 11 10 43 20 71 24 47 6 52 4 57 -15 3 -11 10 -18 16 -14 6 3 19 1 28 -4
15 -9 13 -10 -14 -11 -62 0 -36 -21 46 -36 13 -3 36 -11 50 -19 l26 -14 -37
-1 c-21 0 -38 -4 -38 -10 0 -5 9 -10 21 -10 24 0 49 -22 49 -44 0 -12 -10 -16
-40 -16 -28 0 -38 -4 -34 -13 3 -8 -15 -24 -48 -42 -29 -15 -60 -33 -68 -40
-24 -19 -50 -26 -44 -12 2 7 31 27 64 45 59 33 77 48 67 59 -9 8 -157 -79
-157 -92 0 -7 8 -19 19 -29 17 -16 22 -14 87 25 38 23 76 48 85 55 9 8 19 11
22 7 9 -9 -23 -44 -34 -37 -5 3 -9 0 -9 -7 0 -7 -3 -9 -6 -6 -4 4 -23 -6 -43
-22 -20 -15 -44 -31 -53 -34 -17 -6 -26 -27 -12 -27 14 0 156 83 160 94 2 6
20 11 39 12 20 0 30 -3 24 -7 -6 -4 -8 -12 -5 -18 4 -6 12 -9 17 -6 5 4 9 -5
9 -19 0 -13 6 -27 13 -29 7 -3 4 -6 -7 -6 -16 -1 -103 -43 -131 -64 -5 -4 -19
-14 -30 -22 -18 -13 -19 -14 -2 -15 18 0 98 41 128 67 19 16 54 24 74 17 23
-9 0 -41 -43 -61 -57 -26 -60 -26 -22 -2 35 23 50 38 50 51 0 6 -64 -25 -137
-68 -55 -32 -38 -48 19 -18 16 9 28 11 24 6 -3 -5 -20 -15 -37 -22 -26 -11
-28 -15 -14 -23 11 -6 21 -5 28 2 6 6 16 11 22 11 5 0 1 -8 -10 -16 -14 -11
-16 -18 -7 -21 6 -3 12 -9 12 -14 0 -6 -4 -7 -10 -4 -5 3 -10 2 -10 -4 0 -6
-9 -15 -20 -21 -17 -9 -25 -6 -51 22 l-30 33 18 -32 c10 -18 22 -33 26 -33 5
0 5 -4 2 -10 -3 -5 -11 -10 -16 -10 -6 0 -8 4 -4 9 7 13 -59 81 -79 81 -9 0
-16 6 -16 13 0 8 -10 22 -22 33 -28 24 -78 47 -78 35 0 -5 -9 -11 -19 -14 -26
-6 -54 -52 -47 -74 3 -10 22 -28 41 -41 20 -12 34 -30 34 -40 -1 -15 -2 -14
-6 2 -4 15 -7 16 -14 5 -7 -11 -16 -6 -41 23 -43 49 -92 59 -131 28 -32 -25
-34 -66 -4 -84 15 -9 22 -6 42 16 12 15 26 24 29 21 10 -10 7 -23 -5 -21 -6 2
-13 -2 -16 -8 -4 -13 31 -27 63 -25 11 1 27 -6 35 -15 9 -12 10 -15 2 -10 -7
4 -13 3 -13 -3 0 -6 -11 -7 -28 -2 -25 8 -28 6 -27 -15 0 -30 13 -42 50 -46
29 -3 27 -5 -45 -53 -93 -63 -114 -74 -75 -41 16 14 27 28 23 31 -5 5 -87 -32
-98 -45 -12 -13 -62 -41 -67 -37 -2 3 27 26 66 51 l71 46 -21 21 c-11 11 -23
19 -27 17 -27 -12 -123 -72 -128 -79 -7 -12 -24 -12 -24 0 0 5 16 16 35 25 19
9 37 21 40 26 4 6 10 8 15 5 4 -3 10 2 14 10 3 8 12 15 20 15 7 0 16 7 20 15
11 29 -11 20 -128 -52 -20 -12 -36 -18 -36 -12 0 5 10 14 23 20 27 12 82 46
125 77 27 19 31 27 21 38 -10 12 -15 12 -31 -3 -16 -14 -21 -15 -28 -3 -9 15
-19 12 -95 -35 -52 -31 -70 -32 -25 -1 19 13 38 22 43 19 4 -2 7 0 7 6 0 5 9
12 19 16 12 4 18 12 14 21 -4 12 -10 11 -37 -6 -17 -12 -43 -26 -58 -32 -16
-5 -28 -13 -28 -17 0 -3 -9 -12 -20 -19 -11 -7 -20 -9 -20 -5 0 9 61 52 73 52
5 0 15 8 23 18 7 10 14 14 14 10 0 -5 7 -1 16 7 14 15 14 18 -8 36 -21 17 -25
17 -46 4 -13 -9 -26 -14 -28 -11 -3 2 19 19 48 38 29 18 56 37 59 42 4 5 17 6
30 2 16 -4 20 -3 10 3 -10 7 -5 15 21 36 19 14 42 26 51 26 10 0 17 4 17 8 0
13 73 50 88 45 7 -3 11 0 10 7 -3 11 32 34 194 131 87 51 116 74 105 85 -7 7
-155 -71 -168 -89 -3 -4 -35 -25 -70 -46 l-65 -38 -60 109 c-32 59 -65 108
-72 108 -21 0 -112 -63 -112 -78 0 -20 29 -26 58 -11 15 7 30 15 34 17 4 2 26
-34 49 -80 23 -46 46 -86 52 -90 5 -3 -8 -15 -29 -26 -38 -19 -40 -20 -41 -2
-2 30 -33 70 -59 76 -13 3 -24 10 -24 14 0 5 -12 22 -26 39 -22 26 -33 31 -70
31 -35 0 -47 -5 -59 -24 -17 -26 -12 -71 9 -79 20 -8 47 18 40 38 -5 13 -2 16
12 13 11 -2 20 -13 22 -28 5 -34 20 -50 47 -50 25 0 52 -25 36 -34 -5 -3 -16
-3 -24 0 -21 8 -57 -13 -51 -30 7 -18 52 -38 67 -30 7 4 9 4 6 1 -11 -13 -204
-137 -213 -137 -5 0 -18 -7 -28 -17 -10 -9 -21 -14 -24 -11 -3 3 27 25 66 49
65 41 84 59 60 59 -6 0 -40 -18 -76 -40 -36 -22 -71 -40 -77 -40 -15 0 1 14
43 38 82 46 100 57 100 65 0 15 -26 6 -80 -26 -77 -46 -103 -54 -60 -17 19 16
40 30 45 30 17 1 60 38 52 46 -3 4 -40 -14 -82 -39 -41 -25 -77 -43 -79 -38
-3 4 11 17 32 27 20 10 39 21 42 24 3 3 20 16 38 29 18 12 30 27 26 32 -4 6
-10 6 -18 0 -7 -6 -16 -8 -19 -4 -4 3 -7 2 -7 -4 0 -9 -112 -83 -126 -83 -19
0 10 23 86 70 49 30 90 61 90 68 0 18 -3 17 -90 -38 -44 -27 -84 -50 -90 -50
-5 0 -10 -5 -10 -11 0 -5 -4 -7 -10 -4 -6 4 -5 11 3 20 6 7 14 11 16 9 2 -1 9
2 16 9 7 7 35 25 61 41 27 16 44 31 37 33 -12 4 -55 -17 -121 -61 -23 -16 -45
-26 -49 -23 -7 8 16 37 29 37 17 0 119 78 110 84 -5 3 -32 -10 -60 -29 -28
-19 -56 -35 -61 -35 -5 0 -16 -7 -25 -15 -8 -8 -17 -11 -20 -6 -6 9 43 51 58
51 4 0 12 5 19 10 7 6 25 20 40 31 54 41 17 31 -56 -15 -41 -25 -80 -46 -86
-46 -27 0 -6 21 66 66 42 26 71 50 65 52 -6 2 -45 -17 -85 -42 -41 -25 -77
-46 -80 -46 -23 0 4 24 78 71 47 30 107 70 133 89 26 20 101 69 167 109 66 41
138 85 159 100 22 14 51 33 66 43 27 16 115 80 135 97 11 10 25 5 25 -9z
m1058 -194 c12 -27 4 -38 -36 -50 -12 -4 -34 -18 -50 -30 -15 -13 -38 -26 -52
-30 -19 -6 -21 -5 -10 3 19 13 5 14 -19 1 -21 -11 -172 -52 -176 -48 -1 2 -5
12 -9 24 -6 19 9 27 156 87 90 36 168 66 174 66 6 1 16 -10 22 -23z m-573
-276 c-3 -5 -12 -7 -20 -3 -21 7 -19 13 6 13 11 0 18 -4 14 -10z m703 -62 c22
-22 13 -37 -38 -63 -28 -14 -60 -35 -70 -45 -11 -11 -28 -20 -37 -20 -15 0
-16 2 -3 10 23 15 10 12 -49 -10 -29 -12 -54 -20 -55 -18 0 2 -7 13 -14 26
-12 21 -10 24 15 33 15 5 73 29 128 53 118 52 108 49 123 34z m-678 -38 c0 -5
-7 -10 -16 -10 -8 0 -12 5 -9 10 3 6 10 10 16 10 5 0 9 -4 9 -10z m-40 -15 c0
-2 -13 -11 -30 -20 -38 -19 -40 -11 -2 9 31 17 32 18 32 11z m60 -7 c0 -7 -19
-21 -42 -30 -54 -23 -61 -17 -8 7 22 10 40 22 40 27 0 4 2 8 5 8 3 0 5 -6 5
-12z m21 -41 c-10 -9 -11 -8 -5 6 3 10 9 15 12 12 3 -3 0 -11 -7 -18z m-443
-15 c2 -7 -2 -10 -12 -6 -9 3 -16 11 -16 16 0 13 23 5 28 -10z m482 -2 c0 -5
-5 -10 -11 -10 -5 0 -7 5 -4 10 3 6 8 10 11 10 2 0 4 -4 4 -10z m290 0 c-8 -5
-10 -10 -4 -10 6 0 11 -7 11 -15 0 -20 -23 -19 -31 2 -6 16 8 33 29 33 6 0 3
-5 -5 -10z m-465 -10 c-3 -5 -14 -10 -23 -9 -14 0 -13 2 3 9 27 11 27 11 20 0z
m85 0 c-20 -13 -33 -13 -25 0 3 6 14 10 23 10 15 0 15 -2 2 -10z m106 -25
c-11 -8 -27 -15 -35 -15 -10 1 -7 6 9 15 33 19 50 18 26 0z m-173 -7 c-28 -14
-29 -20 -3 -43 19 -18 22 -17 73 10 l52 27 -29 -26 c-16 -14 -32 -24 -35 -21
-4 2 -12 -5 -19 -16 -10 -16 -9 -19 6 -19 10 0 28 7 40 16 12 8 22 11 22 6 0
-5 -14 -15 -30 -22 -24 -10 -28 -15 -19 -26 7 -9 8 -14 1 -14 -11 0 -10 -25 1
-36 3 -4 23 4 44 16 35 20 37 21 20 2 -31 -35 3 -32 60 5 29 18 53 30 53 26 0
-4 -23 -21 -50 -36 -48 -27 -64 -47 -37 -47 6 0 27 9 46 21 18 11 35 18 37 16
2 -2 -12 -12 -31 -23 -19 -10 -35 -22 -35 -26 0 -18 20 -14 63 14 26 17 49 29
52 27 2 -3 -16 -18 -41 -34 -34 -23 -43 -35 -39 -51 4 -17 -14 -34 -101 -95
-58 -41 -120 -83 -137 -94 l-31 -19 16 22 c8 12 13 34 10 47 -4 24 -54 75 -73
75 -5 0 -9 6 -9 14 0 25 -50 56 -91 56 -30 0 -42 -6 -55 -25 -29 -45 4 -105
41 -75 9 8 13 21 9 32 -5 16 -2 19 13 16 12 -2 18 -12 18 -31 0 -27 21 -51 37
-41 13 8 48 -16 48 -32 0 -12 -7 -14 -27 -10 -21 5 -31 2 -40 -14 -11 -17 -10
-22 12 -36 14 -9 36 -14 50 -12 14 3 25 4 25 3 0 -6 -145 -119 -205 -160 -73
-50 -79 -38 -7 15 61 46 76 60 68 67 -5 5 -33 -12 -103 -62 -11 -9 -24 -12
-27 -7 -3 5 19 26 49 47 53 36 68 55 44 55 -6 0 -28 -13 -48 -29 -20 -15 -47
-34 -61 -41 -21 -11 -20 -8 10 23 18 20 36 34 38 32 3 -2 14 7 24 21 31 39 15
39 -40 0 -27 -20 -54 -36 -60 -36 -6 0 -16 -8 -21 -17 -6 -10 -11 -13 -11 -7
0 13 31 41 82 75 21 13 38 30 38 37 0 16 -9 15 -29 -1 -9 -8 -34 -24 -56 -36
l-40 -23 40 36 c22 19 41 33 43 31 6 -5 52 42 52 54 0 18 -12 13 -68 -25 -30
-20 -56 -34 -58 -31 -3 3 11 15 30 27 20 12 36 25 36 29 0 20 -15 18 -45 -4
-17 -14 -37 -25 -43 -25 -7 0 -12 -4 -12 -10 0 -5 -5 -10 -12 -10 -6 0 -3 9 7
20 10 11 22 20 26 20 15 0 57 49 46 53 -10 3 -58 -24 -92 -51 -28 -22 -60 -42
-69 -42 -5 0 22 23 60 52 38 28 71 53 73 55 2 1 2 6 -2 9 -5 6 -75 -31 -87
-46 -12 -15 -70 -43 -76 -37 -4 4 -5 8 -3 10 2 2 38 25 79 52 41 27 69 50 63
52 -16 6 -128 -58 -145 -81 -4 -6 -10 -7 -14 -3 -4 4 -5 9 -3 10 21 18 140 97
146 97 3 0 30 18 60 40 31 24 59 38 66 34 6 -4 9 -4 5 1 -7 8 15 35 28 35 4 0
25 12 46 26 22 15 52 27 73 27 29 1 34 4 29 19 -3 11 0 18 7 18 7 0 27 11 46
26 18 14 37 23 42 19 6 -3 13 1 18 8 9 16 43 37 58 36 6 0 0 -5 -12 -11z m82
2 c-3 -5 -13 -10 -21 -10 -8 0 -14 -4 -14 -9 0 -11 -39 -26 -46 -18 -3 2 14
14 38 26 49 24 51 25 43 11z m125 -8 c0 -9 -81 -55 -87 -49 -2 3 12 12 31 21
19 9 38 21 41 26 7 12 15 13 15 2z m-1563 -8 c-3 -3 -12 -4 -19 -1 -8 3 -5 6
6 6 11 1 17 -2 13 -5z m1110 -11 c3 -7 -4 -9 -16 -6 -12 3 -18 9 -15 15 7 11
26 6 31 -9z m478 -13 c-3 -5 -12 -10 -18 -10 -7 0 -6 4 3 10 19 12 23 12 15 0z
m-971 -19 c-17 -17 -134 -80 -134 -73 0 8 51 41 60 39 10 -2 70 38 70 47 0 5
3 6 7 3 4 -4 2 -11 -3 -16z m-74 4 c0 -8 -81 -57 -86 -52 -3 2 14 16 38 30 47
29 48 29 48 22z m1299 -31 c12 -19 19 -39 16 -44 -3 -5 -1 -11 5 -15 5 -3 10
-14 10 -23 0 -14 -2 -13 -13 3 -14 20 -49 115 -42 115 1 0 13 -16 24 -36z
m-319 11 c0 -2 -18 -14 -40 -25 -22 -11 -40 -18 -40 -15 0 2 17 13 38 24 42
23 42 23 42 16z m-470 -15 c0 -5 -5 -10 -11 -10 -5 0 -7 5 -4 10 3 6 8 10 11
10 2 0 4 -4 4 -10z m530 6 c0 -2 -7 -7 -16 -10 -8 -3 -12 -2 -9 4 6 10 25 14
25 6z m60 -6 c0 -5 -5 -10 -11 -10 -5 0 -7 5 -4 10 3 6 8 10 11 10 2 0 4 -4 4
-10z m-540 -4 c0 -2 -6 -9 -13 -15 -10 -8 -14 -7 -14 4 0 8 6 15 14 15 7 0 13
-2 13 -4z m-40 -26 c0 -5 -5 -10 -11 -10 -5 0 -7 5 -4 10 3 6 8 10 11 10 2 0
4 -4 4 -10z m-370 -26 c0 -3 -15 -12 -32 -20 -42 -18 -71 -36 -80 -49 -5 -6
-8 -6 -8 2 0 6 24 25 53 42 52 30 67 36 67 25z m990 -9 c-7 -8 -18 -15 -24
-15 -6 0 -2 7 8 15 25 19 32 19 16 0z m-1126 -23 c3 -5 -1 -9 -9 -9 -8 0 -12
4 -9 9 3 4 7 8 9 8 2 0 6 -4 9 -8z m-661 -9 c-7 -2 -19 -2 -25 0 -7 3 -2 5 12
5 14 0 19 -2 13 -5z m1797 3 c0 -7 -112 -77 -116 -73 -3 3 21 21 53 41 58 36
63 39 63 32z m45 -21 c-70 -48 -134 -100 -126 -103 5 -2 44 20 86 48 42 29 80
49 83 45 4 -4 0 -10 -8 -15 -48 -28 -143 -104 -133 -107 13 -5 83 38 123 75
27 24 40 28 40 12 0 -5 -3 -10 -7 -10 -5 0 -24 -14 -43 -31 -19 -16 -47 -37
-62 -47 -26 -15 -37 -32 -21 -32 4 0 39 23 79 50 40 28 75 50 78 50 19 0 -1
-23 -46 -53 -55 -36 -98 -77 -82 -77 6 0 37 19 69 43 76 55 85 60 85 50 0 -9
-113 -103 -124 -103 -7 0 -46 -38 -46 -45 0 -15 28 1 106 60 48 36 89 64 91
62 8 -9 -9 -34 -35 -50 -33 -20 -92 -72 -92 -81 0 -9 47 21 101 66 41 33 59
39 59 18 0 -4 -31 -31 -69 -61 -38 -30 -67 -58 -64 -62 3 -5 17 2 32 16 34 32
112 87 123 87 21 0 3 -23 -54 -67 -34 -26 -66 -51 -72 -55 -6 -4 -7 -10 -3
-14 6 -7 87 51 141 101 l26 24 0 -22 c0 -15 -18 -36 -56 -65 -31 -24 -62 -46
-70 -49 -16 -6 -19 -23 -4 -23 6 0 40 23 76 51 45 36 68 49 76 41 7 -7 4 -13
-10 -21 -11 -6 -26 -17 -34 -23 -34 -33 -266 -216 -332 -263 -24 -16 -59 -43
-78 -60 -67 -59 -131 -110 -146 -119 -9 -5 -36 -24 -60 -43 -43 -32 -72 -42
-72 -24 0 6 17 23 38 38 20 15 39 30 42 33 3 3 18 14 33 24 16 9 26 20 24 23
-3 2 -35 -18 -72 -46 -36 -28 -70 -51 -75 -51 -21 0 -18 20 5 38 34 27 32 38
-3 13 l-29 -20 -22 30 c-13 17 -21 32 -19 33 56 40 129 99 134 108 10 15 -11
3 -61 -37 -52 -41 -83 -57 -96 -50 -5 4 31 39 80 77 81 63 105 88 85 88 -4 0
-26 -15 -49 -34 -63 -52 -135 -106 -140 -106 -3 0 -5 6 -5 14 0 7 32 37 72 67
39 29 66 55 60 57 -6 2 -39 -20 -73 -47 -35 -28 -66 -51 -70 -51 -24 0 -12 21
29 52 58 45 99 88 84 88 -7 0 -29 -15 -49 -32 -66 -58 -103 -80 -103 -64 0 8
29 37 65 65 36 28 65 56 65 62 0 8 -7 7 -19 -2 -61 -46 -127 -89 -134 -89 -9
0 43 51 99 97 24 20 33 32 23 33 -9 0 -44 -22 -78 -50 -34 -27 -64 -50 -67
-50 -11 0 30 50 54 66 14 9 59 45 100 78 100 83 175 135 184 129 5 -2 7 0 6 5
-3 8 111 90 257 185 33 21 71 47 85 57 14 10 27 16 30 13 3 -3 -4 -11 -15 -18z
m519 1 c15 -24 15 -25 -31 -50 -25 -14 -49 -26 -54 -26 -5 0 -13 -9 -19 -20
-6 -11 -18 -20 -28 -20 -15 0 -15 2 -2 10 23 15 7 12 -28 -6 -17 -8 -47 -18
-66 -21 -29 -4 -35 -2 -41 17 -4 12 -3 25 2 29 4 4 55 27 113 50 58 24 109 47
115 52 14 14 21 11 39 -15z m-2335 -2 l24 -5 -24 -17 c-13 -9 -30 -22 -37 -29
-8 -7 -34 -12 -60 -12 -30 1 -37 4 -19 6 39 6 33 19 -13 27 -29 5 -40 11 -40
24 0 16 9 17 73 14 39 -1 83 -5 96 -8z m1994 -46 c8 -5 6 -8 -5 -8 -10 0 -18
3 -18 8 0 4 -3 18 -5 32 l-6 25 11 -25 c6 -13 16 -28 23 -32z m-1123 33 c0 -9
-33 -25 -37 -19 -2 2 -9 -7 -18 -18 -16 -24 -52 -37 -61 -23 -3 5 1 9 8 9 7 0
31 14 52 30 41 31 56 37 56 21z m-10 -95 c0 -3 -4 -8 -10 -11 -5 -3 -10 -1
-10 4 0 6 5 11 10 11 6 0 10 -2 10 -4z m1162 -3 c-6 -2 -9 -10 -6 -15 4 -7 2
-8 -4 -4 -18 11 -14 26 6 25 10 0 12 -3 4 -6z m-2043 -18 c2 -3 -19 -5 -47 -5
-33 0 -52 -4 -52 -12 0 -6 -3 -9 -6 -5 -4 3 -4 13 -1 21 4 11 18 14 53 10 27
-2 50 -7 53 -9z m851 0 c0 -2 -10 -10 -22 -16 -21 -11 -22 -11 -9 4 13 16 31
23 31 12z m-793 -31 c-3 -3 -12 -4 -19 -1 -8 3 -5 6 6 6 11 1 17 -2 13 -5z
m-119 -21 c-10 -2 -26 -2 -35 0 -10 3 -2 5 17 5 19 0 27 -2 18 -5z m745 -41
c17 -15 17 -16 -5 -29 -21 -13 -20 -14 21 -9 25 2 39 1 33 -3 -19 -11 -3 -44
17 -36 9 4 27 8 41 10 14 2 44 8 68 13 23 6 42 6 42 2 0 -4 -28 -13 -62 -20
-35 -6 -74 -16 -88 -20 l-25 -8 25 -1 c14 0 50 6 80 14 62 17 94 19 86 7 -3
-5 -41 -17 -86 -27 -44 -10 -80 -23 -80 -28 0 -5 8 -6 18 -2 23 9 134 35 150
35 6 0 12 -3 12 -7 0 -5 -57 -23 -128 -42 -70 -18 -156 -41 -192 -51 -36 -9
-90 -23 -120 -30 -30 -7 -127 -32 -215 -55 -183 -50 -256 -63 -239 -45 6 6 50
21 98 32 48 11 84 23 82 26 -3 2 -38 -3 -78 -12 -105 -25 -108 -25 -108 -16 0
9 36 21 127 41 29 7 53 16 53 21 0 5 -8 7 -17 4 -37 -11 -149 -36 -163 -36
-31 1 14 17 93 34 42 10 77 22 77 27 0 6 -8 8 -17 5 -33 -9 -154 -36 -166 -36
-28 0 13 18 68 30 70 15 110 29 103 36 -3 2 -45 -5 -93 -16 -48 -11 -90 -19
-92 -16 -2 2 44 15 103 30 59 14 109 28 112 31 16 15 -15 14 -88 -5 -45 -12
-87 -19 -94 -17 -6 2 5 7 24 11 113 24 112 23 105 67 -8 44 -15 41 100 41 39
0 77 -3 87 -6 11 -5 18 -1 23 13 4 12 11 18 17 15 7 -5 1 -16 -15 -30 -32 -28
-34 -42 -6 -46 15 -2 28 -19 44 -58 16 -39 29 -56 44 -58 28 -4 28 29 0 103
-24 64 -21 80 14 87 18 4 24 1 20 -9 -3 -7 0 -27 7 -43 14 -33 40 -39 60 -15
17 21 27 19 46 -11 22 -33 4 -56 -24 -31 -21 19 -52 13 -52 -9 0 -19 40 -44
70 -44 61 0 92 78 49 121 -17 17 -29 20 -60 16 -22 -3 -39 -1 -39 4 0 5 9 10
20 10 11 1 26 2 32 3 16 1 23 36 8 36 -6 0 -9 4 -6 9 3 5 16 7 28 3 16 -4 19
-2 13 8 -9 15 9 6 38 -18z m-716 -8 c-3 -3 -12 -4 -19 -1 -8 3 -5 6 6 6 11 1
17 -2 13 -5z m451 -29 c-3 -3 -9 2 -12 12 -6 14 -5 15 5 6 7 -7 10 -15 7 -18z
m452 6 c-20 -12 -130 -34 -137 -28 -5 5 109 35 137 36 13 0 13 -1 0 -8z m90 5
c0 -2 -8 -10 -17 -17 -16 -13 -17 -12 -4 4 13 16 21 21 21 13z m54 -14 c3 -5
-1 -9 -9 -9 -8 0 -12 4 -9 9 3 4 7 8 9 8 2 0 6 -4 9 -8z m-927 -48 c-3 -3 -12
-4 -19 -1 -8 3 -5 6 6 6 11 1 17 -2 13 -5z m28 -14 c-3 -5 -16 -10 -28 -9 -20
1 -20 2 3 9 14 4 26 8 28 9 2 1 0 -3 -3 -9z m-58 -16 c-3 -3 -12 -4 -19 -1 -8
3 -5 6 6 6 11 1 17 -2 13 -5z m83 -4 c-8 -5 -24 -9 -35 -9 -16 1 -16 2 5 9 35
11 48 11 30 0z m-73 -16 c-3 -3 -12 -4 -19 -1 -8 3 -5 6 6 6 11 1 17 -2 13 -5z
m875 -17 c-2 -9 1 -17 6 -17 10 0 25 -38 23 -54 -1 -4 2 -13 7 -20 6 -6 13
-25 16 -41 6 -29 5 -31 -41 -44 -147 -41 -184 -53 -179 -58 5 -5 101 18 200
48 21 7 32 6 37 -3 11 -17 4 -25 -33 -32 -65 -13 -108 -27 -108 -35 0 -5 19
-2 42 6 52 18 110 21 115 7 2 -7 -18 -17 -49 -24 -73 -17 -137 -39 -113 -39
11 0 51 8 90 19 38 10 73 16 77 14 21 -13 1 -26 -82 -51 -108 -32 -113 -43 -6
-14 89 25 106 26 106 8 0 -14 -24 -23 -127 -48 -29 -7 -53 -16 -53 -21 0 -9
47 -1 124 23 71 23 68 23 64 3 -2 -11 -27 -23 -73 -36 -171 -46 -307 -81 -392
-98 -51 -11 -100 -24 -110 -29 -10 -5 -79 -24 -153 -41 -74 -17 -149 -35 -166
-40 -40 -13 -104 -13 -104 0 0 6 20 10 45 10 25 0 45 4 45 8 0 4 43 18 95 31
52 13 93 26 90 31 -4 7 -49 -2 -162 -33 -53 -14 -113 -12 -113 4 0 5 -18 9
-41 9 -28 0 -39 4 -37 13 7 19 60 21 70 3 11 -20 57 -21 94 -1 16 8 37 15 46
15 27 0 108 23 108 31 0 4 -19 1 -42 -6 -24 -7 -76 -18 -116 -25 -59 -11 -75
-11 -81 -1 -8 12 -28 19 -63 20 -10 1 -15 7 -12 15 3 8 16 12 34 10 16 -2 32
1 35 6 4 6 -9 10 -29 10 -25 0 -36 4 -36 15 0 10 11 15 35 15 19 0 35 4 35 8
0 5 61 23 135 42 74 18 133 35 131 37 -8 8 -261 -52 -275 -65 -7 -7 -20 -11
-28 -8 -8 3 -19 6 -24 6 -5 0 -9 5 -9 10 0 6 16 10 35 10 19 0 35 5 35 11 0 6
7 8 16 5 14 -5 15 -1 10 28 -5 28 -3 35 11 39 14 4 13 5 -4 6 -27 1 -31 27 -5
34 13 4 11 5 -5 6 -36 2 -27 28 15 40 l37 11 -42 -5 c-25 -3 -43 -1 -43 4 0
13 -21 7 525 147 138 35 270 70 295 78 55 18 76 16 72 -7z m-919 6 c-7 -2 -19
-2 -25 0 -7 3 -2 5 12 5 14 0 19 -2 13 -5z m-6 -29 c-3 -3 -12 -4 -19 -1 -8 3
-5 6 6 6 11 1 17 -2 13 -5z m13 -214 c0 -5 -7 -10 -15 -10 -8 0 -15 5 -15 10
0 6 7 10 15 10 8 0 15 -4 15 -10z m14 -46 c5 -12 2 -15 -10 -10 -8 3 -20 6
-25 6 -5 0 -9 5 -9 10 0 16 37 11 44 -6z m14 -45 c7 -12 11 -24 8 -27 -3 -3
-6 0 -6 6 0 7 -13 12 -29 12 -30 0 -46 12 -34 24 14 13 49 5 61 -15z m-18 -29
c8 -5 12 -12 8 -15 -8 -8 -58 5 -58 16 0 12 31 11 50 -1z m10 -230 c0 -5 -16
-10 -35 -10 -19 0 -35 5 -35 10 0 6 16 10 35 10 19 0 35 -4 35 -10z m0 -50 c0
-5 -16 -10 -35 -10 -19 0 -35 5 -35 10 0 6 16 10 35 10 19 0 35 -4 35 -10z m0
-97 c0 -9 -13 -13 -40 -13 -29 0 -40 4 -40 15 0 11 10 14 40 13 26 -1 40 -6
40 -15z m128 -30 c3 -10 -13 -13 -57 -13 -48 0 -61 3 -61 15 0 13 11 15 57 13
34 -2 58 -8 61 -15z m-154 -9 c28 -11 17 -22 -19 -21 -22 1 -35 6 -35 14 0 14
27 17 54 7z m16 -54 c0 -5 -16 -10 -35 -10 -19 0 -35 5 -35 10 0 6 16 10 35
10 19 0 35 -4 35 -10z m148 -26 c41 -11 22 -24 -35 -24 -65 0 -103 8 -103 21
0 10 103 12 138 3z m-158 -24 c0 -5 -16 -10 -35 -10 -19 0 -35 5 -35 10 0 6
16 10 35 10 19 0 35 -4 35 -10z"/>
<path d="M4905 3060 c3 -5 8 -10 11 -10 2 0 4 5 4 10 0 6 -5 10 -11 10 -5 0
-7 -4 -4 -10z"/>
<path d="M4345 2077 c-70 -44 -109 -76 -102 -83 6 -7 157 97 157 108 0 11 1
11 -55 -25z"/>
<path d="M4430 1978 c-30 -17 -57 -34 -60 -38 -3 -4 -16 -13 -30 -20 -15 -8
-20 -15 -12 -18 13 -4 146 71 158 89 13 21 -3 17 -56 -13z"/>
<path d="M4477 1956 c-15 -12 -50 -33 -77 -47 -27 -13 -50 -30 -50 -38 0 -7 6
-11 14 -8 31 12 156 98 156 107 0 15 -12 11 -43 -14z"/>
<path d="M4530 1945 c0 -8 -5 -15 -11 -15 -6 0 -30 -14 -55 -31 -25 -17 -50
-27 -57 -23 -6 4 -9 4 -5 -1 4 -4 0 -13 -9 -20 -9 -7 -12 -15 -6 -18 14 -9
166 91 158 104 -5 7 4 8 28 4 21 -4 37 -3 41 4 5 7 -8 11 -38 11 -34 0 -46 -4
-46 -15z"/>
<path d="M4550 1902 c-8 -3 -27 -13 -41 -23 -14 -10 -29 -16 -33 -12 -3 3 -6
1 -6 -5 0 -6 -13 -18 -30 -27 -33 -17 -41 -40 -11 -30 31 9 153 93 144 98 -4
2 -15 2 -23 -1z"/>
<path d="M4645 1729 c-27 -16 -60 -34 -72 -39 -13 -5 -23 -17 -23 -25 0 -13 4
-14 21 -5 11 7 23 9 26 6 3 -3 -3 -9 -13 -13 -28 -10 -48 -33 -38 -43 5 -5 28
3 53 21 25 16 55 32 68 35 13 4 23 9 23 13 0 4 16 13 35 21 26 10 32 17 24 26
-7 9 -16 10 -27 4 -41 -22 -82 -40 -82 -35 0 2 18 14 40 25 39 20 53 40 28 40
-7 -1 -35 -14 -63 -31z"/>
<path d="M4642 1320 c-12 -12 -22 -32 -22 -45 0 -56 87 -108 130 -78 24 17 50
11 50 -11 0 -12 -7 -14 -28 -10 -18 4 -32 1 -41 -9 -10 -13 -8 -18 11 -31 12
-9 32 -16 44 -16 29 0 74 37 74 61 0 29 -27 77 -50 89 -13 7 -17 16 -13 28 3
9 3 14 -2 10 -4 -4 -19 2 -33 12 -33 27 -92 26 -120 0z m82 -49 c12 -13 14
-21 6 -26 -11 -7 -50 21 -50 37 0 15 27 8 44 -11z"/>
<path d="M4956 1033 c-26 -7 -55 -43 -56 -68 0 -21 19 -53 52 -89 22 -24 23
-42 3 -50 -10 -3 -29 13 -57 49 -50 62 -66 72 -87 51 -13 -14 -13 -23 2 -86 9
-38 23 -86 31 -105 l15 -34 41 22 c39 21 42 21 54 5 25 -34 63 -19 43 16 -11
20 -18 76 -8 76 2 0 12 -7 21 -15 10 -9 33 -18 52 -22 28 -4 39 -1 57 18 37
40 28 77 -39 157 -34 40 -65 72 -70 72 -4 0 -14 2 -22 4 -7 2 -22 1 -32 -1z
m81 -110 c48 -57 59 -83 37 -90 -14 -5 -114 113 -114 133 0 29 30 12 77 -43z
m-153 -119 c8 -22 7 -34 -3 -34 -5 0 -11 11 -13 25 -6 28 6 34 16 9z"/>
<path d="M4709 632 c-25 -21 -56 -45 -70 -54 -13 -9 -19 -17 -12 -17 6 -1 30
15 54 35 23 19 51 42 63 49 11 8 18 16 15 19 -2 2 -25 -12 -50 -32z"/>
<path d="M4730 590 c-19 -16 -30 -29 -24 -30 5 0 23 14 39 30 37 38 29 39 -15
0z"/>
<path d="M3285 1279 c-11 -16 -2 -17 25 -2 24 12 24 13 3 13 -12 0 -25 -5 -28
-11z"/>
<path d="M3560 980 c-13 -11 -27 -20 -32 -20 -5 0 -6 -4 -3 -10 3 -5 14 -10
24 -10 18 0 30 -20 61 -97 7 -18 14 -33 15 -33 16 0 35 15 35 29 0 9 -12 48
-25 86 -14 39 -25 71 -25 73 0 9 -31 -2 -50 -18z"/>
<path d="M4135 880 c-19 -8 -19 -9 3 -9 12 -1 22 4 22 9 0 6 -1 10 -2 9 -2 0
-12 -4 -23 -9z"/>
<path d="M4158 843 c7 -3 16 -2 19 1 4 3 -2 6 -13 5 -11 0 -14 -3 -6 -6z"/>
<path d="M3957 736 c-31 -24 -35 -65 -15 -146 22 -83 45 -116 89 -122 60 -9
94 54 65 124 -20 48 -38 60 -83 56 -35 -3 -38 -1 -41 25 -4 34 25 49 44 22 13
-18 44 -15 44 5 0 18 -40 50 -62 50 -13 0 -31 -7 -41 -14z m94 -163 c19 -51
-17 -76 -39 -28 -17 38 -15 55 8 55 13 0 24 -10 31 -27z"/>
<path d="M3498 713 c7 -3 16 -2 19 1 4 3 -2 6 -13 5 -11 0 -14 -3 -6 -6z"/>
<path d="M3458 703 c7 -3 16 -2 19 1 4 3 -2 6 -13 5 -11 0 -14 -3 -6 -6z"/>
<path d="M3796 680 c-28 -33 -27 -50 4 -50 20 0 27 -18 50 -133 12 -59 31 -80
53 -58 8 8 8 23 -1 59 -27 100 -64 212 -71 212 -4 0 -20 -14 -35 -30z"/>
<path d="M3508 673 c7 -3 16 -2 19 1 4 3 -2 6 -13 5 -11 0 -14 -3 -6 -6z"/>
<path d="M3468 663 c7 -3 16 -2 19 1 4 3 -2 6 -13 5 -11 0 -14 -3 -6 -6z"/>
<path d="M3662 640 c-26 -33 -23 -51 7 -43 20 5 23 -5 51 -135 12 -55 17 -62
41 -62 25 0 24 17 -2 110 -50 174 -56 182 -97 130z"/>
<path d="M3428 653 c7 -3 16 -2 19 1 4 3 -2 6 -13 5 -11 0 -14 -3 -6 -6z"/>
<path d="M3495 630 c-28 -7 -28 -8 -5 -9 14 0 32 4 40 9 17 11 8 11 -35 0z"/>
<path d="M3475 580 l-20 -9 20 0 c11 0 27 4 35 9 13 9 13 10 0 9 -8 0 -24 -4
-35 -9z"/>
<path d="M3418 563 c6 -2 18 -2 25 0 6 3 1 5 -13 5 -14 0 -19 -2 -12 -5z"/>
<path d="M3518 493 c6 -2 18 -2 25 0 6 3 1 5 -13 5 -14 0 -19 -2 -12 -5z"/>
<path d="M3410 476 c-50 -11 -53 -13 -25 -18 16 -3 32 -3 35 1 3 5 23 13 45
19 55 14 13 13 -55 -2z"/>
<path d="M3543 457 c-24 -5 -43 -13 -43 -17 0 -8 88 15 98 25 7 6 -3 5 -55 -8z"/>
<path d="M3408 433 c-21 -2 -38 -8 -38 -14 0 -13 39 -11 85 6 42 15 33 16 -47
8z"/>
<path d="M3188 3513 c7 -3 16 -2 19 1 4 3 -2 6 -13 5 -11 0 -14 -3 -6 -6z"/>
<path d="M883 3486 c10 -15 16 -34 13 -42 -5 -14 5 -19 17 -8 8 8 -18 60 -35
70 -7 5 -5 -4 5 -20z"/>
<path d="M8043 3461 c-47 -34 -68 -78 -59 -123 9 -45 33 -68 73 -68 91 0 165
93 133 169 -23 56 -87 66 -147 22z m121 -35 c17 -35 18 -42 5 -65 -17 -32
-100 -75 -128 -66 -23 7 -35 52 -26 95 8 37 69 82 105 78 18 -2 30 -14 44 -42z"/>
<path d="M2763 3473 c9 -2 23 -2 30 0 6 3 -1 5 -18 5 -16 0 -22 -2 -12 -5z"/>
<path d="M7843 3404 c-65 -32 -109 -93 -92 -126 16 -29 45 -30 99 -3 28 14 55
23 60 20 14 -9 -14 -59 -46 -84 -29 -22 -25 -43 4 -25 30 19 82 95 82 120 0
32 -35 32 -100 -1 -61 -31 -70 -31 -70 -2 0 34 35 66 86 79 24 7 43 17 41 23
-6 16 -30 16 -64 -1z"/>
<path d="M2335 3360 c27 -12 43 -12 25 0 -8 5 -22 9 -30 9 -10 0 -8 -3 5 -9z"/>
<path d="M7578 3312 c-61 -37 -76 -145 -26 -185 45 -37 155 1 189 64 17 32 2
35 -29 7 -63 -58 -116 -75 -142 -43 -21 25 -2 53 48 70 90 32 92 34 92 59 0
46 -78 62 -132 28z m100 -19 c5 -16 -83 -55 -112 -51 -19 3 -18 6 13 36 26 25
41 32 64 30 17 -2 32 -9 35 -15z"/>
<path d="M1087 3289 c-18 -10 -18 -11 0 -25 26 -20 33 -17 31 11 -3 28 -5 29
-31 14z"/>
<path d="M8284 3271 c-115 -41 -581 -230 -774 -315 -112 -49 -109 -49 -130 15
l-13 38 56 53 c68 65 90 122 63 163 -23 35 -74 34 -140 -3 -28 -16 -57 -27
-65 -24 -16 5 -15 0 50 -172 27 -71 48 -130 46 -131 -1 -1 -23 -11 -49 -23
-27 -12 -48 -29 -48 -37 0 -20 23 -19 68 3 20 10 45 17 55 14 10 -2 17 2 17
12 0 9 4 16 10 16 5 0 47 18 92 39 89 42 200 91 288 126 30 12 132 54 225 92
207 86 336 133 359 133 23 0 15 24 -10 27 -10 2 -56 -10 -100 -26z m-826 -63
c29 -29 -1 -93 -68 -140 l-37 -27 -17 44 c-23 59 -18 85 23 112 37 25 80 30
99 11z"/>
<path d="M1140 3260 c-14 -26 -9 -72 8 -78 8 -2 12 11 12 47 0 56 -4 61 -20
31z"/>
<path d="M1037 3263 c-3 -5 -2 -15 2 -22 5 -7 11 -9 14 -4 3 5 2 15 -2 22 -5
7 -11 9 -14 4z"/>
<path d="M2698 3253 c6 -2 18 -2 25 0 6 3 1 5 -13 5 -14 0 -19 -2 -12 -5z"/>
<path d="M3496 3178 l-17 -33 20 24 c18 20 27 41 18 41 -1 0 -11 -15 -21 -32z"/>
<path d="M8383 3158 c-24 -31 -24 -41 0 -19 36 33 61 22 52 -21 -4 -18 -13
-48 -21 -65 -7 -18 -10 -33 -7 -33 3 0 29 14 57 32 63 40 60 37 55 43 -3 2
-22 -7 -42 -22 -20 -14 -39 -24 -42 -22 -2 3 0 22 6 42 13 49 4 77 -25 77 -13
0 -28 -6 -33 -12z"/>
<path d="M3669 3133 c-13 -16 -12 -17 4 -4 16 13 21 21 13 21 -2 0 -10 -8 -17
-17z"/>
<path d="M3439 3120 c-13 -10 -19 -19 -13 -20 6 0 19 9 29 20 23 26 14 26 -16
0z"/>
<path d="M1137 3102 c-23 -25 -22 -28 14 -41 34 -12 53 -6 42 12 -4 7 -6 20
-5 30 4 23 -30 23 -51 -1z"/>
<path d="M1019 3086 c26 -32 173 -136 184 -129 5 3 -5 14 -24 24 -19 10 -50
33 -71 51 -20 18 -51 42 -70 52 -29 17 -31 18 -19 2z"/>
<path d="M3383 3088 c-23 -30 -24 -41 -2 -21 12 12 20 25 17 28 -3 3 -10 0
-15 -7z"/>
<path d="M3579 3063 c-13 -16 -12 -17 4 -4 9 7 17 15 17 17 0 8 -8 3 -21 -13z"/>
<path d="M1425 3060 c3 -5 11 -10 16 -10 6 0 7 5 4 10 -3 6 -11 10 -16 10 -6
0 -7 -4 -4 -10z"/>
<path d="M1475 3050 c-3 -5 1 -10 10 -10 9 0 13 5 10 10 -3 6 -8 10 -10 10 -2
0 -7 -4 -10 -10z"/>
<path d="M1496 2994 c-21 -24 -44 -44 -52 -44 -7 0 -16 -4 -19 -10 -7 -11 15
-5 53 13 18 8 25 8 31 -1 8 -13 83 29 110 61 12 15 10 17 -22 17 -19 0 -41 2
-49 4 -7 2 -30 -16 -52 -40z"/>
<path d="M3468 3022 c-9 -9 -23 -42 -32 -74 -25 -89 -19 -133 14 -93 18 22 47
18 54 -7 9 -35 27 -8 31 46 2 32 -1 46 -10 46 -13 0 -25 30 -25 67 0 30 -14
36 -32 15z m17 -107 c3 -16 3 -27 -1 -23 -4 4 -15 -2 -25 -13 -18 -21 -18 -20
-13 18 11 74 24 81 39 18z"/>
<path d="M8293 3021 c-40 -25 -66 -74 -67 -128 -1 -59 20 -79 67 -64 38 13 71
44 85 81 l9 25 17 -33 c9 -17 21 -32 26 -32 15 0 12 9 -28 90 -41 84 -57 93
-109 61z m72 -31 c16 -52 -35 -140 -81 -140 -30 0 -38 19 -29 67 12 67 94 122
110 73z"/>
<path d="M3314 3014 c-18 -14 -18 -15 4 -4 12 6 22 13 22 15 0 8 -5 6 -26 -11z"/>
<path d="M3769 2983 c-13 -16 -12 -17 4 -4 16 13 21 21 13 21 -2 0 -10 -8 -17
-17z"/>
<path d="M1863 2973 c15 -2 37 -2 50 0 12 2 0 4 -28 4 -27 0 -38 -2 -22 -4z"/>
<path d="M8100 2959 c-19 -11 -45 -32 -57 -47 l-22 -26 -21 22 c-18 20 -47 23
-36 4 2 -4 22 -46 44 -94 31 -66 45 -86 57 -82 19 8 19 13 -5 49 -28 43 -25
78 11 120 22 25 43 37 70 41 23 4 39 12 39 20 0 20 -40 17 -80 -7z"/>
<path d="M3311 2911 c-32 -30 -47 -87 -16 -61 8 7 15 21 15 31 0 11 7 19 16
19 14 0 15 -7 10 -39 -5 -33 -3 -39 15 -44 16 -4 20 -12 17 -34 -3 -24 -8 -28
-33 -28 -23 0 -30 -4 -30 -20 0 -32 33 -29 65 5 33 36 39 80 14 101 -10 8 -14
22 -11 38 5 27 -7 61 -22 61 -5 0 -23 -13 -40 -29z"/>
<path d="M1768 2923 c6 -2 18 -2 25 0 6 3 1 5 -13 5 -14 0 -19 -2 -12 -5z"/>
<path d="M7630 2887 c0 -8 7 -34 15 -57 20 -56 20 -57 -14 -65 -21 -4 -28 -11
-24 -21 5 -14 16 -13 60 3 7 3 21 -21 34 -57 12 -33 26 -63 31 -66 21 -13 20
10 -2 72 -23 67 -21 77 16 88 18 6 25 -1 43 -43 12 -28 30 -55 42 -61 26 -15
78 2 109 35 17 19 27 22 36 14 30 -25 31 0 4 70 -31 78 -42 96 -58 90 -7 -3
-3 -20 8 -44 31 -65 25 -92 -30 -129 -53 -35 -85 -12 -95 69 -5 37 -12 55 -21
55 -12 0 -17 -10 -16 -30 0 -3 -18 -5 -40 -5 -38 0 -41 2 -57 44 -16 44 -41
67 -41 38z"/>
<path d="M7518 2854 c-4 -3 -2 -16 4 -28 7 -11 30 -68 53 -125 23 -58 47 -107
53 -109 19 -6 15 13 -29 123 -41 105 -68 152 -81 139z"/>
<path d="M3829 2767 c-102 -76 -115 -88 -50 -45 35 24 74 50 87 59 31 21 40
29 28 29 -5 -1 -34 -20 -65 -43z"/>
<path d="M6500 2787 c-19 -6 -58 -34 -87 -62 -63 -62 -89 -135 -79 -227 9 -91
37 -133 109 -163 104 -43 232 19 325 160 35 53 39 65 19 65 -8 0 -29 -21 -47
-47 -67 -96 -139 -143 -215 -143 -64 0 -99 21 -126 77 -73 148 29 337 166 311
29 -6 32 4 9 26 -18 18 -25 18 -74 3z"/>
<path d="M7023 2732 c-66 -33 -93 -52 -93 -65 0 -16 3 -16 28 -4 15 8 62 31
105 52 42 20 77 44 77 51 0 22 -18 16 -117 -34z"/>
<path d="M3879 2743 c-13 -16 -12 -17 4 -4 16 13 21 21 13 21 -2 0 -10 -8 -17
-17z"/>
<path d="M7442 2725 c-52 -37 -81 -154 -47 -189 11 -11 23 -12 48 -5 35 9 87
60 87 84 0 25 16 17 31 -17 31 -64 26 -10 -5 62 -29 67 -35 75 -61 78 -17 1
-40 -5 -53 -13z m74 -30 c19 -47 -36 -145 -81 -145 -45 0 -44 76 2 130 27 32
70 40 79 15z"/>
<path d="M7068 2654 c-65 -32 -108 -60 -108 -69 0 -25 21 -18 122 40 53 30
101 55 108 55 13 0 9 22 -6 26 -5 2 -57 -22 -116 -52z"/>
<path d="M3615 2670 c-3 -5 -1 -10 4 -10 6 0 11 5 11 10 0 6 -2 10 -4 10 -3 0
-8 -4 -11 -10z"/>
<path d="M3580 2660 c-13 -8 -12 -10 3 -10 9 0 17 5 17 10 0 12 -1 12 -20 0z"/>
<path d="M3895 2641 c-16 -11 -41 -29 -55 -41 l-25 -21 30 15 c29 15 95 66 85
66 -3 0 -18 -9 -35 -19z"/>
<path d="M6124 2629 c-6 -10 -24 -97 -48 -231 -4 -21 -12 -38 -19 -38 -7 0
-42 30 -77 66 -111 113 -169 146 -198 111 -9 -11 30 -230 73 -404 6 -26 36
-31 55 -8 10 12 9 23 -4 56 -20 49 -76 274 -76 304 0 14 35 -16 128 -108 70
-70 132 -127 138 -127 6 0 14 21 18 48 14 107 39 222 50 238 11 15 22 -2 86
-129 40 -80 78 -148 85 -150 17 -7 38 8 33 24 -8 33 -149 299 -173 327 -27 32
-58 41 -71 21z"/>
<path d="M4028 2439 c-43 -28 -78 -55 -78 -61 0 -13 2 -11 88 46 39 27 72 53
72 57 0 13 3 14 -82 -42z"/>
<path d="M8972 2452 c4 -15 1 -18 -19 -14 -20 4 -24 1 -21 -14 2 -14 -2 -18
-16 -16 -15 3 -18 -1 -13 -18 4 -17 1 -20 -16 -18 -17 2 -22 -2 -21 -19 0 -16
-3 -20 -11 -13 -14 12 -25 3 -25 -21 0 -12 -6 -16 -20 -12 -14 4 -20 1 -18 -8
2 -8 -5 -14 -17 -14 -15 0 -20 -6 -19 -28 1 -25 0 -26 -16 -12 -9 8 -19 13
-22 9 -9 -8 21 -62 40 -74 9 -5 12 -10 5 -10 -6 0 -23 14 -36 30 -24 29 -57
40 -57 21 0 -5 12 -24 26 -41 38 -44 25 -47 -17 -3 -28 30 -35 33 -37 19 -2
-10 6 -29 19 -42 12 -13 19 -24 14 -24 -4 0 5 -11 21 -25 29 -25 54 -33 54
-17 0 4 -6 14 -12 22 -7 7 -1 5 14 -6 15 -10 28 -24 28 -30 0 -6 12 -21 26
-33 17 -15 24 -29 21 -42 -3 -10 -1 -17 4 -13 5 3 9 0 9 -6 0 -6 5 -8 10 -5 6
3 10 1 10 -4 0 -6 -6 -11 -14 -11 -8 0 -23 -3 -33 -6 -15 -5 -15 -4 -3 5 12 8
12 11 1 11 -18 0 -91 -41 -91 -52 0 -4 -8 -8 -17 -8 -15 0 -15 -2 -4 -9 9 -6
23 -6 35 0 15 7 13 3 -7 -15 -15 -14 -33 -26 -40 -25 -9 0 -9 2 1 6 17 7 15
23 -3 23 -8 0 -19 -9 -25 -20 -8 -15 -8 -20 1 -20 7 0 5 -10 -6 -26 -10 -15
-15 -38 -13 -54 3 -21 1 -27 -10 -23 -7 3 -28 -9 -46 -26 l-33 -32 -27 26
c-15 14 -24 30 -20 37 4 6 3 8 -3 5 -6 -4 -18 3 -26 16 -9 12 -36 45 -61 72
-25 28 -46 53 -46 57 0 11 -50 58 -60 58 -6 0 -10 -6 -9 -12 1 -21 14 -50 22
-49 4 1 7 0 7 -1 -1 -2 22 -28 50 -58 68 -72 108 -131 103 -150 -3 -11 -2 -11
4 -3 6 9 17 1 38 -25 17 -22 20 -30 8 -19 -20 18 -23 17 -109 -18 -170 -70
-184 -83 -149 -132 8 -12 12 -30 9 -40 -3 -10 -2 -14 3 -8 4 6 19 10 32 10 36
0 50 29 27 54 -18 20 -18 21 25 39 24 11 62 25 84 32 22 7 53 19 69 27 28 14
29 14 72 -34 43 -48 54 -76 33 -88 -6 -4 -8 -14 -5 -22 5 -11 2 -13 -9 -9 -18
7 -55 -13 -55 -30 0 -16 -34 -28 -38 -15 -2 6 -8 9 -12 6 -5 -3 -7 -13 -4 -23
5 -14 4 -15 -5 -2 -5 8 -21 16 -33 17 -20 1 -23 -3 -23 -36 0 -21 6 -45 14
-54 7 -10 10 -17 5 -17 -5 -1 4 -11 20 -24 21 -18 25 -25 15 -31 -8 -5 -11 -5
-7 0 4 4 -4 16 -17 27 -13 10 -26 27 -30 37 -6 21 -45 18 -45 -4 0 -7 -7 -15
-15 -19 -8 -3 -15 -10 -15 -16 0 -6 5 -8 10 -5 6 3 13 -2 17 -12 4 -10 16 -26
28 -35 11 -10 17 -17 13 -18 -5 0 1 -9 12 -20 22 -22 45 -18 36 7 -4 10 -1 13
12 9 16 -5 29 4 117 82 17 14 34 25 39 24 5 -2 6 9 4 23 -5 21 -3 23 9 13 13
-10 20 -7 44 20 16 18 33 32 39 32 6 0 13 7 16 15 4 8 10 15 15 15 5 0 57 47
114 104 l105 104 0 421 c0 381 -2 421 -16 421 -11 0 -15 -6 -12 -18z m-146
-207 c15 -14 23 -25 17 -25 -5 0 -20 11 -33 25 -13 14 -21 25 -17 25 3 0 18
-11 33 -25z m-32 -23 c3 -5 -1 -9 -9 -9 -8 0 -12 4 -9 9 3 4 7 8 9 8 2 0 6 -4
9 -8z m123 -9 c-15 -4 -16 -7 -5 -21 12 -15 11 -16 -4 -3 -20 15 -15 32 10 30
15 -1 15 -2 -1 -6z m-25 -53 c-4 -39 -34 -100 -48 -100 -8 0 -11 6 -7 17 4 10
2 14 -4 10 -6 -4 -25 9 -42 30 -32 39 -34 58 -3 30 24 -22 32 -21 32 2 0 14 5
18 20 14 14 -4 20 0 20 12 0 10 6 15 18 13 12 -2 16 -11 14 -28z m-61 -274
c-6 -8 -22 -16 -34 -19 -22 -6 -22 -6 2 14 27 22 49 26 32 5z m64 -26 c4 -6 2
-9 -3 -8 -5 2 -21 -11 -35 -28 -20 -23 -23 -34 -15 -42 9 -9 9 -12 0 -12 -7 0
-33 -20 -59 -45 -25 -25 -49 -45 -53 -45 -4 0 -26 -18 -48 -41 -24 -23 -49
-39 -59 -37 -17 3 -60 65 -51 73 3 3 25 -1 50 -9 53 -16 78 -6 78 29 0 14 6
25 13 25 6 1 28 21 47 46 19 24 45 47 57 50 11 3 31 17 44 30 26 27 26 27 34
14z m-295 -440 c0 -5 -2 -10 -4 -10 -3 0 -8 5 -11 10 -3 6 -1 10 4 10 6 0 11
-4 11 -10z m70 -10 c0 -5 -2 -10 -4 -10 -3 0 -8 5 -11 10 -3 6 -1 10 4 10 6 0
11 -4 11 -10z m-200 -50 c8 -15 8 -18 -3 -14 -8 3 -14 11 -14 19 0 20 4 19 17
-5z m68 -5 c-3 -3 -9 2 -12 12 -6 14 -5 15 5 6 7 -7 10 -15 7 -18z m56 -74
c-5 -5 -33 30 -34 43 0 4 9 -2 19 -15 11 -13 17 -26 15 -28z m-64 4 c14 -19
14 -19 -2 -6 -10 7 -18 18 -18 24 0 6 1 8 3 6 1 -2 9 -13 17 -24z m-57 -68
c-3 -5 -10 -1 -16 9 -6 11 -13 21 -16 24 -3 3 -13 14 -21 25 -8 11 2 5 23 -14
20 -19 34 -39 30 -44z m55 -2 c-3 -3 -9 2 -12 12 -6 14 -5 15 5 6 7 -7 10 -15
7 -18z"/>
<path d="M5673 2424 c-9 -23 93 -327 117 -349 46 -42 41 0 -22 183 -60 173
-79 207 -95 166z"/>
<path d="M3268 2385 c-38 -25 -68 -48 -68 -51 0 -3 12 2 28 11 84 55 126 85
117 85 -6 -1 -40 -21 -77 -45z"/>
<path d="M3205 2290 c-3 -6 1 -7 9 -4 18 7 21 14 7 14 -6 0 -13 -4 -16 -10z"/>
<path d="M3265 2270 c-3 -6 1 -7 9 -4 18 7 21 14 7 14 -6 0 -13 -4 -16 -10z"/>
<path d="M3344 2264 c-18 -14 -18 -15 4 -4 12 6 22 13 22 15 0 8 -5 6 -26 -11z"/>
<path d="M3795 2260 c-35 -38 -21 -85 53 -178 60 -75 123 -90 158 -37 21 32
13 64 -27 110 -35 39 -76 47 -104 19 -18 -18 -17 -18 -35 15 -15 29 1 51 23
32 17 -14 47 -4 47 15 0 19 -40 44 -71 44 -14 0 -34 -9 -44 -20z m165 -177 c0
-22 -37 -15 -53 11 -23 35 -1 53 30 24 13 -12 23 -27 23 -35z"/>
<path d="M3268 2220 c-52 -32 -66 -50 -20 -26 29 16 80 56 72 56 -3 0 -26 -14
-52 -30z"/>
<path d="M3315 2194 c-38 -25 -72 -49 -74 -55 -4 -12 112 60 117 73 2 4 10 8
17 8 8 0 17 5 20 10 12 19 -11 9 -80 -36z"/>
<path d="M3644 2164 c-20 -19 -24 -31 -19 -52 3 -15 10 -31 15 -36 15 -15 40
2 40 29 0 15 6 25 14 25 20 0 29 -17 30 -54 1 -26 6 -32 30 -36 33 -6 59 -39
47 -59 -7 -10 -13 -11 -31 -1 -18 10 -25 9 -39 -5 -15 -15 -14 -18 8 -36 13
-10 36 -19 51 -19 31 0 80 40 80 66 0 27 -37 80 -65 92 -14 7 -25 20 -25 31 0
24 -64 81 -91 81 -11 0 -31 -11 -45 -26z"/>
<path d="M8603 2159 c5 -18 2 -20 -19 -15 -25 7 -25 6 -9 -23 11 -22 12 -32 3
-37 -7 -4 -8 -3 -4 4 3 6 -2 16 -13 21 -30 16 -34 14 -26 -16 5 -23 4 -26 -6
-15 -23 22 -41 14 -36 -15 2 -16 2 -22 0 -15 -4 11 -43 18 -43 7 0 -12 26 -51
43 -63 9 -7 15 -17 13 -21 -3 -4 7 -14 22 -22 15 -7 32 -15 37 -18 6 -3 2 7
-7 21 -25 38 -6 43 26 7 15 -16 31 -27 36 -24 15 10 12 23 -12 45 l-22 21 24
-3 c22 -3 25 1 23 27 -1 17 1 22 4 13 6 -23 22 -23 30 -1 4 10 -2 23 -16 35
-13 10 -20 18 -16 18 4 0 -3 9 -16 20 -13 10 -18 19 -11 20 6 0 12 -5 12 -12
0 -6 3 -9 6 -5 4 3 16 -8 28 -25 26 -39 42 -45 49 -17 3 11 3 19 0 16 -3 -3
-23 16 -44 44 -41 51 -65 64 -56 28z m-53 -153 c0 -11 -19 -15 -25 -6 -3 5 1
10 9 10 9 0 16 -2 16 -4z"/>
<path d="M3357 2108 c-42 -28 -75 -53 -72 -56 2 -3 22 6 42 20 21 13 57 37 81
51 40 26 51 37 35 37 -5 0 -43 -23 -86 -52z"/>
<path d="M3433 2102 c-12 -9 -44 -30 -72 -47 -47 -28 -70 -55 -36 -42 19 8
155 98 155 103 0 10 -27 2 -47 -14z"/>
<path d="M3420 2034 c-36 -24 -69 -46 -75 -48 -5 -2 -7 -7 -3 -11 8 -8 158 85
158 98 0 13 -13 6 -80 -39z"/>
<path d="M3480 2016 c-19 -13 -55 -37 -80 -52 -25 -15 -39 -29 -32 -32 13 -4
162 88 162 101 0 12 -14 8 -50 -17z"/>
<path d="M8415 2020 c6 -19 89 -110 100 -110 13 0 3 28 -15 45 -11 10 -18 20
-16 22 6 6 -55 63 -66 63 -5 0 -7 -9 -3 -20z"/>
<path d="M3550 2010 c-14 -11 -56 -39 -93 -61 -44 -27 -66 -47 -63 -55 4 -10
-5 -14 -32 -15 -36 -1 -36 -1 15 -15 l52 -14 82 52 c45 29 77 54 71 56 -7 2
-25 -6 -41 -17 -16 -12 -32 -21 -36 -21 -3 0 -21 -11 -39 -25 -18 -14 -38 -25
-44 -25 -29 0 -5 24 83 81 52 33 95 65 95 70 0 15 -24 10 -50 -11z"/>
<path d="M8379 1991 c6 -10 7 -21 4 -25 -3 -3 1 -6 10 -6 9 0 22 -10 28 -22 6
-12 23 -33 37 -47 l24 -26 -6 33 c-3 19 -16 42 -28 52 -13 11 -18 20 -13 20
10 0 -50 40 -61 40 -2 0 0 -8 5 -19z"/>
<path d="M3280 1996 c0 -2 9 -6 20 -9 11 -3 20 -1 20 4 0 5 -9 9 -20 9 -11 0
-20 -2 -20 -4z"/>
<path d="M8340 1972 c0 -11 31 -55 50 -69 8 -7 11 -13 6 -13 -4 0 2 -9 15 -19
23 -18 39 -19 39 -2 0 10 -93 111 -102 111 -5 0 -8 -3 -8 -8z"/>
<path d="M8260 1922 c0 -4 5 -13 12 -20 7 -7 10 -12 7 -12 -4 0 13 -20 37 -45
23 -25 44 -45 47 -45 2 0 7 9 10 20 3 11 0 18 -7 17 -6 -1 -10 4 -8 11 1 6 -2
11 -6 10 -4 -2 -23 14 -41 35 -31 35 -51 46 -51 29z"/>
<path d="M8220 1903 c0 -11 27 -47 81 -105 33 -37 45 -25 16 16 -12 17 -21 32
-19 34 1 1 -1 2 -5 2 -5 1 -23 15 -40 32 -18 18 -33 27 -33 21z"/>
<path d="M3250 1870 l-35 -7 43 -2 c27 0 41 3 37 9 -3 6 -7 9 -8 9 -1 -1 -18
-5 -37 -9z"/>
<path d="M8195 1854 c9 -14 30 -40 46 -57 16 -16 29 -34 29 -38 0 -17 18 -9
23 11 3 13 1 18 -6 13 -7 -4 -8 0 -4 11 5 14 3 17 -8 12 -8 -3 -15 -2 -15 2 0
12 -60 72 -72 72 -6 0 -3 -12 7 -26z"/>
<path d="M8150 1849 c0 -7 11 -26 24 -43 13 -17 24 -35 24 -39 2 -13 46 -46
55 -40 4 2 -13 31 -38 63 -49 64 -65 78 -65 59z"/>
<path d="M8110 1815 c0 -8 12 -29 28 -47 81 -94 94 -107 108 -101 10 4 5 15
-21 45 -19 22 -33 46 -32 52 1 6 -3 10 -10 9 -7 -2 -21 11 -33 27 -23 33 -40
39 -40 15z"/>
<path d="M8466 1815 c-5 -13 -2 -14 17 -4 32 17 33 19 10 19 -12 0 -23 -7 -27
-15z"/>
<path d="M8070 1794 c0 -3 17 -27 39 -53 21 -25 38 -50 37 -56 0 -5 7 -11 17
-13 29 -6 19 20 -29 76 -42 47 -64 63 -64 46z"/>
<path d="M8030 1767 c0 -2 10 -15 21 -28 12 -13 33 -39 46 -56 32 -42 64 -47
34 -5 -32 44 -79 92 -90 92 -6 0 -11 -2 -11 -3z"/>
<path d="M8000 1740 c0 -15 88 -120 101 -120 16 0 10 15 -21 48 -16 18 -30 40
-30 49 0 9 -3 13 -7 10 -3 -4 -15 0 -25 10 -13 11 -18 12 -18 3z"/>
<path d="M7960 1710 c0 -10 78 -101 94 -110 5 -3 10 5 11 17 1 12 -2 20 -6 17
-11 -6 -50 47 -42 59 3 5 1 7 -4 4 -6 -4 -16 0 -23 8 -14 17 -30 20 -30 5z"/>
<path d="M7920 1686 c0 -12 71 -101 94 -117 5 -4 6 -12 2 -18 -5 -7 -1 -9 8
-5 9 3 16 2 16 -3 0 -6 10 -21 23 -35 36 -42 55 -65 66 -86 9 -17 7 -19 -15
-14 -16 3 -41 -4 -63 -16 -21 -12 -42 -18 -46 -14 -5 4 -5 2 -2 -4 11 -18 -25
-43 -48 -33 -19 8 -19 8 3 15 12 3 22 10 22 15 0 15 -30 10 -47 -7 -9 -8 -22
-13 -29 -10 -8 3 -26 1 -40 -4 -22 -9 -25 -8 -19 9 6 21 -2 22 -48 3 -16 -7
-36 -12 -45 -12 -13 0 -12 3 6 16 30 21 28 39 -8 71 -16 14 -30 30 -30 35 0
13 -21 33 -43 41 -28 11 -17 -19 26 -65 20 -23 35 -43 32 -46 -2 -3 -23 16
-46 42 -43 48 -79 64 -59 26 6 -11 7 -20 3 -20 -4 0 -1 -5 7 -10 8 -5 10 -10
4 -10 -6 0 -17 7 -24 15 -18 22 -33 18 -27 -6 4 -17 3 -19 -6 -10 -16 16 -37
14 -37 -4 0 -8 -9 -15 -20 -15 -11 0 -19 -6 -18 -12 2 -7 -5 -12 -14 -12 -10
1 -18 -4 -18 -12 0 -19 -9 -18 -82 10 -84 31 -155 64 -198 91 -44 28 -137 59
-168 57 -13 -1 -35 7 -49 18 -27 21 -87 27 -98 9 -7 -11 13 -69 24 -69 13 0
61 -52 56 -61 -7 -10 49 -85 85 -113 14 -11 53 -48 88 -83 47 -47 62 -69 60
-86 -2 -12 -9 -21 -16 -20 -6 2 -12 -4 -12 -12 0 -8 -9 -15 -20 -15 -24 0 -26
-13 -5 -33 8 -8 11 -17 8 -20 -3 -3 -12 0 -20 8 -8 8 -19 15 -24 15 -17 0 -9
-20 24 -57 19 -21 42 -48 53 -60 23 -29 27 -29 60 2 33 31 50 27 46 -9 -2 -16
3 -29 13 -32 8 -3 15 -16 15 -28 0 -27 18 -46 42 -46 10 0 18 -5 18 -11 0 -5
-4 -8 -9 -4 -13 7 -41 -22 -41 -43 0 -9 -23 -40 -52 -69 -49 -50 -51 -54 -36
-70 15 -14 23 -15 56 -5 51 16 62 15 62 -3 0 -25 40 -17 77 16 20 17 42 28 50
25 8 -3 19 -6 24 -6 5 0 9 -8 9 -17 0 -15 2 -16 10 -3 7 12 13 9 35 -15 l25
-30 -25 -22 c-14 -12 -25 -26 -25 -30 1 -18 108 -126 118 -119 11 7 4 18 -65
94 -17 20 -29 40 -26 46 4 5 10 1 14 -10 4 -10 8 -15 8 -10 1 6 12 -6 26 -25
13 -19 34 -44 46 -56 l22 -22 32 32 c52 52 138 122 146 120 4 -2 82 -56 174
-120 166 -118 234 -166 486 -342 74 -52 147 -105 162 -118 27 -22 36 -23 173
-23 l144 0 0 173 0 172 -48 32 c-26 18 -75 51 -108 75 -34 24 -99 69 -145 101
-46 32 -118 82 -159 112 -41 30 -93 66 -115 82 -108 74 -215 158 -215 169 0 7
12 22 26 33 57 45 154 140 154 151 0 6 5 8 10 5 6 -4 23 5 38 20 21 22 24 28
12 36 -8 5 -11 9 -6 9 4 0 -2 9 -15 21 -13 11 -17 17 -9 13 8 -4 -3 10 -25 32
-38 37 -41 39 -56 22 -16 -17 -18 -16 -35 9 -9 15 -27 35 -38 44 -20 16 -20
17 9 43 26 24 27 28 15 51 -16 29 -55 35 -46 7 4 -11 -2 -22 -14 -30 -11 -7
-20 -8 -20 -3 0 6 7 14 16 19 15 8 14 10 -2 16 -9 4 -20 2 -24 -4 -4 -7 -24
10 -51 42 -24 29 -59 71 -79 94 -55 64 -94 109 -112 133 -20 24 -38 28 -38 7z
m-160 -306 c0 -5 -4 -10 -10 -10 -5 0 -10 5 -10 10 0 6 5 10 10 10 6 0 10 -4
10 -10z m331 -50 c-28 -24 -43 -26 -34 -4 3 8 12 13 19 10 8 -3 14 -1 14 4 0
6 6 10 13 10 6 -1 1 -10 -12 -20z m95 11 c-3 -5 1 -14 9 -21 8 -7 15 -9 15 -4
0 10 79 -78 80 -88 0 -8 -59 -38 -75 -38 -7 0 -18 -6 -24 -14 -9 -11 -7 -12
13 -9 13 3 26 0 30 -5 4 -6 -2 -8 -14 -5 -13 4 -20 0 -20 -10 0 -8 -9 -17 -20
-20 -17 -4 -20 -2 -15 14 7 22 -13 26 -34 7 -11 -11 -13 -9 -8 9 6 26 -22 56
-48 51 -30 -5 -28 20 2 38 15 10 38 29 51 42 12 14 22 21 22 16 1 -5 8 3 16
19 8 15 17 27 20 27 3 0 3 -4 0 -9z m-226 -15 c0 -2 -7 -7 -16 -10 -8 -3 -12
-2 -9 4 6 10 25 14 25 6z m401 -103 c13 -16 12 -17 -3 -4 -10 7 -18 15 -18 17
0 8 8 3 21 -13z m-831 -1 c0 -5 -7 -9 -15 -9 -8 0 -12 4 -9 9 3 4 9 8 15 8 5
0 9 -4 9 -8z m858 -47 c-3 -3 -9 2 -12 12 -6 14 -5 15 5 6 7 -7 10 -15 7 -18z
m-28 -25 c0 -5 -2 -10 -4 -10 -3 0 -8 5 -11 10 -3 6 -1 10 4 10 6 0 11 -4 11
-10z m-30 -42 c0 -6 -6 -5 -15 2 -8 7 -15 14 -15 16 0 2 7 1 15 -2 8 -4 15
-11 15 -16z m-50 -3 c7 -9 8 -15 2 -15 -5 0 -12 7 -16 15 -3 8 -4 15 -2 15 2
0 9 -7 16 -15z m-1090 -107 c0 -6 -6 -5 -15 2 -8 7 -15 14 -15 16 0 2 7 1 15
-2 8 -4 15 -11 15 -16z m34 -16 c3 -5 -1 -9 -9 -9 -8 0 -12 4 -9 9 3 4 7 8 9
8 2 0 6 -4 9 -8z m146 -272 c-24 -15 -36 -11 -14 4 10 8 21 12 24 10 2 -3 -2
-9 -10 -14z m260 -135 c13 -14 21 -25 18 -25 -2 0 -15 11 -28 25 -13 14 -21
25 -18 25 2 0 15 -11 28 -25z m60 -71 c0 -2 -9 0 -20 6 -11 6 -20 13 -20 16 0
2 9 0 20 -6 11 -6 20 -13 20 -16z"/>
<path d="M3193 1683 c9 -2 23 -2 30 0 6 3 -1 5 -18 5 -16 0 -22 -2 -12 -5z"/>
<path d="M3268 1683 c6 -2 18 -2 25 0 6 3 1 5 -13 5 -14 0 -19 -2 -12 -5z"/>
<path d="M3128 1663 c6 -2 18 -2 25 0 6 3 1 5 -13 5 -14 0 -19 -2 -12 -5z"/>
<path d="M7880 1663 c0 -5 25 -35 55 -68 41 -46 54 -55 54 -40 0 11 -20 41
-45 68 -42 44 -64 58 -64 40z"/>
<path d="M7844 1633 c1 -12 -5 -17 -16 -15 -27 4 -22 -14 15 -55 19 -21 37
-46 40 -55 6 -17 37 -26 37 -11 0 3 -18 30 -40 59 -22 29 -36 56 -30 59 5 3
17 -7 27 -22 26 -40 59 -73 72 -73 17 0 13 15 -9 35 -11 10 -20 25 -20 33 0 9
-3 13 -6 9 -3 -3 -17 7 -31 24 -28 33 -41 37 -39 12z"/>
<path d="M7770 1591 c0 -5 18 -32 40 -60 22 -28 37 -51 33 -51 -11 0 20 -20
31 -20 4 0 5 10 1 23 -3 12 -7 27 -7 34 -1 7 -5 10 -9 8 -10 -7 -30 21 -21 30
4 5 2 5 -5 1 -7 -4 -16 2 -22 13 -11 20 -41 36 -41 22z"/>
<path d="M7730 1557 c0 -8 9 -22 20 -32 11 -10 17 -22 14 -27 -3 -5 -15 3 -26
17 -10 14 -26 25 -35 25 -10 0 -6 -11 16 -39 17 -21 31 -43 31 -47 1 -13 50
-47 58 -40 3 4 1 15 -6 26 -8 14 -9 21 0 26 6 4 8 3 5 -3 -4 -6 7 -21 23 -33
17 -13 30 -32 30 -43 0 -26 5 -20 14 15 5 23 1 33 -24 54 -16 15 -28 29 -26
31 5 5 -78 83 -88 83 -3 0 -6 -6 -6 -13z"/>
<path d="M3213 1523 c9 -2 25 -2 35 0 9 3 1 5 -18 5 -19 0 -27 -2 -17 -5z"/>
<path d="M8357 1514 c3 -8 11 -14 19 -14 21 0 17 17 -5 23 -14 3 -18 1 -14 -9z"/>
<path d="M3230 1456 c0 -8 61 -12 66 -4 3 4 -11 8 -30 8 -20 0 -36 -2 -36 -4z"/>
<path d="M7885 1400 c-3 -5 -1 -10 4 -10 6 0 11 5 11 10 0 6 -2 10 -4 10 -3 0
-8 -4 -11 -10z"/>
<path d="M2030 1278 c0 -9 -3 -23 -6 -32 -3 -9 -2 -16 4 -16 15 0 23 30 12 48
-9 16 -9 16 -10 0z"/>
<path d="M8315 1280 c-3 -5 -1 -10 4 -10 6 0 11 5 11 10 0 6 -2 10 -4 10 -3 0
-8 -4 -11 -10z"/>
<path d="M1830 1267 c0 -9 9 -21 20 -27 11 -6 20 -7 20 -2 0 5 -9 17 -20 27
-18 16 -20 16 -20 2z"/>
<path d="M1890 1220 c-12 -7 -13 -13 -4 -28 17 -26 6 -74 -15 -70 -9 2 -15 11
-13 20 1 9 -6 18 -18 21 -17 4 -19 1 -14 -18 5 -20 3 -23 -15 -18 -14 4 -21 1
-21 -9 0 -19 -58 -38 -93 -31 -16 3 -33 15 -39 28 -9 19 -13 21 -34 11 -13 -6
-24 -16 -24 -22 0 -6 -18 -16 -40 -23 -22 -6 -40 -17 -40 -24 -1 -7 -9 -2 -19
11 -11 12 -28 22 -39 22 -27 0 -82 -29 -89 -47 -5 -12 -7 -12 -15 -1 -5 8 -6
-2 -2 -27 4 -22 11 -46 17 -52 7 -10 3 -13 -18 -13 -19 0 -26 4 -22 14 3 8 -1
17 -9 20 -8 3 -17 -1 -20 -9 -4 -8 -10 -13 -14 -10 -4 3 -29 -7 -54 -20 -26
-14 -44 -19 -40 -13 5 8 0 7 -11 -2 -13 -11 -19 -12 -22 -3 -4 11 -58 9 -93
-4 -8 -3 -40 -7 -71 -7 -71 -2 -92 -17 -77 -54 6 -15 19 -34 29 -43 24 -22 13
-31 -29 -23 -25 5 -33 3 -28 -5 4 -6 16 -11 27 -11 10 0 19 -4 19 -8 0 -5 13
-9 30 -9 16 0 33 -2 36 -6 12 -11 -7 -27 -33 -27 -22 0 -24 -3 -18 -22 20 -64
1 -146 -31 -134 -18 7 -58 -34 -45 -47 7 -7 17 -5 31 8 11 10 23 15 26 12 7
-6 8 -49 2 -82 -2 -15 3 -20 22 -22 43 -2 44 -3 32 -15 -7 -7 -12 -20 -12 -30
0 -16 5 -14 27 10 16 16 33 38 39 48 9 15 23 19 60 19 34 0 55 6 67 18 14 14
22 16 32 7 10 -8 15 -8 20 0 4 7 20 10 35 8 19 -3 31 2 39 14 14 22 28 23 28
3 0 -8 -4 -15 -8 -15 -4 0 -9 -7 -13 -15 -4 -11 2 -14 24 -11 20 2 31 -2 35
-13 9 -26 89 -69 119 -64 14 3 26 8 26 12 0 3 15 13 32 20 18 8 41 24 50 35
15 19 17 19 18 4 0 -10 6 -18 13 -18 14 0 63 71 58 85 -2 6 -3 27 -2 48 2 31
-1 37 -19 37 -11 0 -20 5 -20 10 0 13 46 13 72 -1 11 -6 23 -7 26 -3 4 4 1 9
-5 11 -15 5 -17 49 -3 58 5 3 7 12 3 20 -3 10 1 15 13 16 11 0 14 3 8 5 -6 3
4 21 23 42 26 28 30 38 19 40 -13 3 -10 10 12 38 17 22 33 32 44 28 9 -2 20 0
24 7 5 9 -5 10 -40 5 -31 -5 -46 -4 -46 4 0 26 31 66 65 85 21 11 45 35 56 57
18 35 18 38 2 47 -16 8 -16 13 6 59 29 62 16 91 -29 62z m-105 -140 c3 -5 1
-10 -4 -10 -6 0 -11 5 -11 10 0 6 2 10 4 10 3 0 8 -4 11 -10z m-41 -131 c-27
-11 -34 -10 -34 0 0 11 31 20 44 13 5 -3 1 -9 -10 -13z"/>
<path d="M5776 1018 c-33 -17 -69 -42 -80 -54 -13 -15 -36 -25 -61 -28 -22 -2
-53 -9 -68 -15 -16 -6 -37 -11 -48 -11 -11 0 -26 -6 -34 -12 -7 -7 -30 -27
-52 -45 -78 -64 -88 -72 -77 -73 5 0 41 25 78 56 50 41 71 53 79 45 7 -7 7
-14 2 -19 -6 -5 -38 -32 -73 -60 -87 -71 -62 -66 29 6 54 43 106 72 189 106
63 26 120 49 125 51 6 3 15 -6 22 -20 13 -28 2 -39 -67 -68 -19 -8 -46 -20
-60 -26 l-25 -11 25 6 c19 4 22 3 10 -5 -8 -6 -23 -8 -33 -5 -24 7 -89 -15
-84 -29 4 -14 1 -17 -78 -82 -74 -60 -49 -53 33 9 33 25 67 46 74 46 8 0 64
21 124 46 60 25 126 52 147 61 20 8 37 21 37 28 0 25 -52 135 -64 134 -6 0
-38 -14 -70 -31z"/>
<path d="M7070 1031 c0 -7 16 -31 35 -53 19 -23 32 -45 28 -51 -4 -6 -1 -7 6
-3 7 5 18 0 26 -10 17 -23 30 -13 17 13 -17 29 -112 119 -112 104z"/>
<path d="M7043 979 c26 -36 131 -149 139 -149 20 0 3 27 -59 96 -36 41 -73 74
-80 74 -12 0 -12 -3 0 -21z"/>
<path d="M7000 974 c0 -13 105 -133 118 -133 20 -1 14 9 -30 58 -47 51 -88 86
-88 75z"/>
<path d="M7267 963 c-4 -3 -7 -11 -7 -17 0 -6 5 -5 12 2 6 6 9 14 7 17 -3 3
-9 2 -12 -2z"/>
<path d="M6970 940 c0 -15 100 -130 113 -130 18 0 2 26 -53 83 -33 34 -60 55
-60 47z"/>
<path d="M6940 911 c0 -15 98 -131 111 -131 18 0 8 16 -51 80 -33 36 -60 59
-60 51z"/>
<path d="M6911 863 c8 -10 19 -23 24 -29 6 -6 25 -27 43 -48 18 -21 38 -36 45
-33 12 4 -99 127 -116 127 -5 0 -3 -8 4 -17z"/>
<path d="M6870 850 c0 -15 13 -31 130 -160 37 -41 94 -106 126 -145 32 -38 85
-99 118 -135 34 -36 79 -87 101 -114 71 -86 71 -86 83 -74 7 7 1 20 -21 46
-18 20 -56 63 -86 96 -29 34 -62 69 -73 78 -11 10 -16 23 -12 29 4 7 3 9 -3 6
-11 -7 -37 20 -118 119 -104 128 -245 273 -245 254z"/>
<path d="M5534 822 c-10 -9 -49 -41 -86 -70 -38 -30 -68 -58 -68 -63 0 -13 11
-6 103 66 42 33 77 65 77 72 0 17 -2 16 -26 -5z"/>
<path d="M6840 818 c1 -19 107 -134 116 -125 7 7 -8 26 -88 110 -16 16 -28 23
-28 15z"/>
<path d="M6852 726 c46 -56 78 -80 78 -60 0 9 -113 124 -122 124 -5 0 15 -29
44 -64z"/>
<path d="M5570 723 l-35 -36 38 28 c20 15 37 31 37 36 0 13 -1 12 -40 -28z"/>
<path d="M6772 751 c7 -20 117 -130 122 -122 6 10 -101 131 -116 131 -5 0 -8
-4 -6 -9z"/>
<path d="M6741 723 c10 -24 96 -122 107 -122 20 -1 12 11 -40 67 -48 51 -74
72 -67 55z"/>
<path d="M5611 699 c-13 -11 -22 -22 -19 -24 2 -3 15 6 28 20 28 30 24 32 -9
4z"/>
<path d="M5904 666 c-39 -18 -79 -42 -90 -53 -21 -21 -59 -39 -49 -23 3 6 1
10 -4 10 -6 0 -11 -6 -11 -12 0 -13 -52 -60 -102 -92 -16 -10 -28 -22 -28 -26
0 -8 83 44 119 73 13 11 116 47 134 47 5 0 6 -4 2 -9 -10 -17 12 -20 34 -5 17
13 20 19 10 30 -6 8 -7 14 -3 14 12 0 36 -39 30 -49 -3 -4 -23 -16 -45 -26
-22 -10 -38 -21 -36 -25 3 -5 -3 -6 -13 -3 -17 4 -171 -103 -172 -120 0 -9 76
43 122 85 18 15 36 28 42 28 5 0 2 -6 -8 -13 -9 -7 -16 -18 -14 -24 3 -9 -102
-101 -142 -123 -8 -5 -12 -11 -9 -15 9 -9 169 105 169 120 0 7 15 18 33 25 67
25 113 45 144 63 l32 18 -19 52 c-36 104 -26 99 -126 53z"/>
<path d="M6706 688 c15 -24 139 -158 146 -158 5 0 8 4 8 8 0 12 -140 162 -151
162 -6 0 -7 -6 -3 -12z"/>
<path d="M5506 675 c-11 -8 -15 -15 -9 -15 6 0 16 7 23 15 16 19 11 19 -14 0z"/>
<path d="M5607 643 c-31 -26 -55 -48 -53 -51 6 -6 116 79 116 89 0 12 3 14
-63 -38z"/>
<path d="M5231 643 c-12 -43 -9 -51 21 -47 18 3 36 -12 81 -67 53 -63 82 -81
82 -51 0 17 -148 202 -162 202 -7 0 -17 -16 -22 -37z"/>
<path d="M5554 654 c-18 -14 -18 -15 4 -4 12 6 22 13 22 15 0 8 -5 6 -26 -11z"/>
<path d="M6677 656 c16 -27 105 -117 114 -114 4 2 -14 28 -41 58 -27 30 -50
58 -50 63 0 4 -7 7 -15 7 -11 0 -13 -5 -8 -14z"/>
<path d="M5611 590 c-73 -60 -86 -76 -34 -42 91 57 142 103 116 102 -5 -1 -41
-28 -82 -60z"/>
<path d="M6640 633 c1 -15 109 -127 116 -120 4 4 -17 33 -47 64 -55 59 -69 71
-69 56z"/>
<path d="M5670 574 c-63 -50 -82 -71 -35 -40 22 15 52 34 67 44 26 16 37 33
21 31 -5 0 -28 -16 -53 -35z"/>
<path d="M6610 603 c0 -18 107 -129 116 -121 3 4 -21 36 -55 70 -33 35 -61 57
-61 51z"/>
<path d="M5122 581 c-12 -7 -12 -19 -2 -67 23 -112 49 -147 80 -109 18 21 53
19 68 -5 7 -12 18 -17 27 -14 14 6 14 9 0 31 -9 13 -15 34 -13 46 2 17 -2 22
-19 20 -16 -2 -34 12 -65 52 -44 55 -53 61 -76 46z m71 -101 c17 -27 17 -31 2
-36 -20 -8 -21 -6 -30 34 -8 40 5 41 28 2z"/>
<path d="M6576 568 c5 -7 24 -30 44 -51 19 -21 39 -45 43 -53 4 -8 15 -14 23
-14 9 0 -7 26 -42 65 -32 36 -62 65 -66 65 -5 0 -6 -6 -2 -12z"/>
<path d="M5722 494 c-65 -50 -94 -78 -59 -57 73 44 154 113 133 113 -1 0 -35
-25 -74 -56z"/>
<path d="M6540 536 c0 -8 3 -16 8 -18 4 -1 52 -52 107 -113 55 -60 105 -116
112 -123 41 -42 65 -84 56 -93 -7 -7 -19 0 -38 25 -15 20 -34 36 -42 36 -22 0
-27 -28 -10 -54 19 -29 13 -36 -27 -36 -87 0 -141 -37 -139 -97 1 -49 25 -66
78 -58 22 3 55 5 73 5 24 0 40 9 67 37 42 45 43 53 8 54 -21 1 -23 2 -8 6 11
3 32 16 46 30 22 20 31 23 47 14 11 -6 22 -15 24 -20 8 -21 112 -131 124 -131
19 0 17 13 -3 31 -10 8 -44 44 -77 80 -32 35 -75 82 -95 104 -20 22 -59 67
-86 100 -61 74 -194 217 -212 228 -8 5 -13 3 -13 -7z m172 -451 c-17 -14 -36
-25 -44 -25 -8 0 -19 -5 -26 -12 -9 -9 -13 -7 -18 5 -12 33 20 52 89 56 l29 1
-30 -25z"/>
<path d="M7446 532 c-3 -5 4 -21 17 -34 12 -14 44 -50 71 -81 42 -49 66 -63
66 -39 0 9 -128 156 -140 160 -4 2 -11 -1 -14 -6z"/>
<path d="M4844 509 c-19 -22 -19 -22 4 -8 12 8 22 17 22 21 0 12 -6 9 -26 -13z"/>
<path d="M7031 509 c-12 -11 -26 -32 -31 -45 -5 -13 -16 -24 -23 -24 -43 0
-76 -90 -47 -125 8 -10 10 -19 4 -23 -5 -4 -21 -21 -37 -38 l-27 -30 25 -24
24 -23 61 62 c44 45 55 61 38 56 -20 -6 -21 -6 -7 6 10 8 20 24 23 36 6 20 4
21 -29 13 -19 -4 -37 -4 -40 0 -9 14 27 42 46 37 22 -6 43 17 36 37 -9 23 26
61 48 53 14 -6 15 -10 5 -22 -10 -12 -10 -21 -2 -40 14 -31 23 -31 40 -4 21
34 23 60 5 90 -14 23 -24 29 -53 29 -23 0 -45 -8 -59 -21z"/>
<path d="M7544 476 c25 -30 46 -59 46 -65 0 -6 9 -11 20 -11 26 0 25 6 -5 42
-14 16 -23 34 -19 39 3 5 2 8 -3 7 -5 -2 -19 7 -33 20 -48 44 -52 22 -6 -32z"/>
<path d="M6511 504 c7 -9 30 -34 51 -57 21 -23 38 -45 38 -49 0 -5 7 -8 15 -8
8 0 15 3 15 6 0 10 -114 124 -124 124 -5 0 -3 -7 5 -16z"/>
<path d="M4799 473 c-13 -16 -12 -17 4 -4 9 7 17 15 17 17 0 8 -8 3 -21 -13z"/>
<path d="M6477 476 c11 -20 100 -116 107 -116 15 0 2 20 -45 73 -46 52 -81 77
-62 43z"/>
<path d="M7445 469 c-4 -5 12 -30 34 -54 23 -25 41 -49 41 -54 0 -11 29 -23
41 -16 8 6 -2 21 -48 73 -13 14 -23 28 -23 31 0 13 -39 31 -45 20z"/>
<path d="M6440 450 c0 -6 27 -39 60 -73 73 -76 80 -57 9 22 -54 59 -69 70 -69
51z"/>
<path d="M7415 440 c-4 -7 4 -24 17 -38 55 -60 68 -76 68 -84 0 -4 7 -8 15 -8
29 0 16 22 -72 117 -14 16 -24 20 -28 13z"/>
<path d="M4785 414 c-16 -14 -21 -21 -10 -16 30 16 61 41 50 41 -5 0 -23 -11
-40 -25z"/>
<path d="M6400 426 c0 -2 15 -19 34 -39 19 -20 43 -48 55 -63 11 -14 26 -24
32 -22 7 2 -11 28 -39 58 -28 30 -52 58 -52 63 0 7 -30 11 -30 3z"/>
<path d="M4924 404 c-18 -14 -18 -15 4 -4 12 6 22 13 22 15 0 8 -5 6 -26 -11z"/>
<path d="M4989 399 l-24 -20 28 17 c15 9 27 18 27 20 0 8 -8 4 -31 -17z"/>
<path d="M5787 373 c-63 -51 -70 -72 -10 -30 66 46 99 76 83 76 -8 0 -41 -21
-73 -46z"/>
<path d="M7380 401 c0 -5 7 -14 16 -22 9 -7 29 -32 45 -56 17 -24 36 -43 44
-43 22 0 19 7 -32 70 -44 54 -73 74 -73 51z"/>
<path d="M4810 380 c-14 -11 -20 -20 -14 -20 6 0 19 9 29 20 23 25 17 25 -15
0z"/>
<path d="M5339 383 c-13 -16 -12 -17 4 -4 9 7 17 15 17 17 0 8 -8 3 -21 -13z"/>
<path d="M6370 389 c0 -17 146 -163 153 -152 7 11 -128 163 -144 163 -5 0 -9
-5 -9 -11z"/>
<path d="M4936 364 c-11 -7 -18 -16 -15 -18 2 -2 13 2 23 10 11 7 18 16 15 18
-2 2 -13 -2 -23 -10z"/>
<path d="M5835 348 c-22 -16 -49 -36 -59 -44 -11 -7 -17 -16 -13 -20 6 -6 137
82 137 92 0 12 -29 0 -65 -28z"/>
<path d="M7340 376 c0 -3 16 -22 36 -43 19 -21 42 -48 51 -60 15 -22 43 -32
43 -15 0 10 -113 122 -123 122 -4 0 -7 -2 -7 -4z"/>
<path d="M6340 364 c0 -9 104 -124 112 -124 16 0 7 16 -37 65 -25 27 -45 53
-45 57 0 4 -7 8 -15 8 -8 0 -15 -3 -15 -6z"/>
<path d="M6050 327 c-36 -18 -69 -37 -75 -43 -5 -6 -28 -24 -50 -40 -22 -16
-42 -31 -45 -34 -3 -3 -34 -27 -70 -52 -36 -26 -69 -51 -75 -56 -5 -4 -41 -29
-79 -55 -37 -26 -61 -47 -51 -47 19 0 160 93 283 187 46 34 87 63 91 63 26 0
13 -19 -44 -62 -36 -27 -65 -53 -65 -59 0 -11 77 39 122 80 26 23 28 23 35 6
4 -11 2 -20 -5 -23 -24 -8 -134 -102 -119 -102 8 0 38 18 66 40 28 22 55 40
61 40 19 0 10 -18 -20 -42 -65 -49 -95 -77 -90 -82 4 -3 39 19 80 49 40 30 77
55 82 55 6 0 30 14 54 32 43 31 45 31 58 12 31 -44 94 -100 134 -119 23 -11
42 -26 42 -33 0 -21 22 -37 53 -40 25 -2 27 0 15 17 -46 65 -203 231 -219 231
-18 0 -8 -20 26 -53 19 -19 35 -37 35 -41 0 -3 15 -20 33 -36 36 -33 33 -42
-3 -10 -94 82 -127 120 -151 180 -15 35 -30 65 -35 66 -5 2 -38 -12 -74 -29z
m33 -91 c3 -8 -5 -18 -19 -25 l-25 -11 18 25 c21 29 20 28 26 11z"/>
<path d="M5255 324 c-18 -16 -22 -22 -9 -15 18 9 53 42 43 41 -2 -1 -17 -12
-34 -26z"/>
<path d="M5865 309 c-28 -21 -58 -42 -67 -45 -17 -6 -25 -24 -12 -24 11 0 110
68 124 85 26 31 3 23 -45 -16z"/>
<path d="M6310 330 c0 -16 108 -125 116 -118 4 4 -15 32 -42 62 -50 54 -74 73
-74 56z"/>
<path d="M5540 321 c0 -7 -4 -10 -9 -7 -15 10 -42 -30 -37 -55 3 -13 5 -27 5
-31 1 -10 13 -10 30 1 11 7 12 13 3 23 -16 19 1 40 29 36 31 -4 48 -52 48
-139 1 -101 27 -109 116 -35 28 23 29 26 13 42 -16 16 -18 16 -43 0 -15 -10
-29 -16 -31 -13 -3 2 -8 26 -13 53 -9 57 -38 124 -55 124 -6 0 -21 3 -33 6
-14 4 -23 2 -23 -5z"/>
<path d="M7282 311 c6 -16 101 -121 109 -121 17 0 8 16 -42 73 -45 50 -77 73
-67 48z"/>
<path d="M5873 260 c-68 -52 -76 -78 -9 -29 77 56 89 66 80 72 -5 3 -37 -16
-71 -43z"/>
<path d="M6280 298 c0 -19 114 -132 118 -119 4 12 -68 97 -100 119 -14 10 -18
9 -18 0z"/>
<path d="M4087 283 c-50 -13 -58 -18 -55 -37 3 -18 9 -21 47 -18 l44 3 -6
-116 -6 -115 29 0 30 0 2 75 c1 41 3 103 4 138 1 56 -8 89 -25 86 -3 -1 -32
-8 -64 -16z"/>
<path d="M7248 285 c-2 -3 21 -33 53 -67 32 -34 61 -60 64 -57 6 7 -94 129
-105 129 -4 0 -9 -2 -12 -5z"/>
<path d="M6250 274 c0 -6 17 -30 38 -55 20 -24 44 -52 52 -61 17 -21 30 -23
30 -5 0 7 -27 39 -60 72 -33 33 -60 55 -60 49z"/>
<path d="M3932 227 c-38 -39 -40 -55 -9 -66 18 -7 25 -22 37 -82 15 -71 17
-74 46 -77 l31 -3 -24 118 c-30 144 -37 155 -81 110z"/>
<path d="M7220 254 c0 -14 96 -124 108 -124 16 0 6 15 -54 83 -39 44 -54 55
-54 41z"/>
<path d="M4959 213 c-13 -16 -12 -17 4 -4 9 7 17 15 17 17 0 8 -8 3 -21 -13z"/>
<path d="M5388 218 c-8 -22 29 -158 48 -179 17 -19 17 -19 39 1 28 26 37 25
63 -5 12 -14 27 -25 32 -25 19 0 23 30 6 49 -9 10 -15 29 -14 42 3 21 -1 24
-24 22 -16 -1 -28 2 -28 8 0 5 -7 9 -16 9 -8 0 -13 4 -10 8 3 5 -5 18 -17 30
-12 11 -28 28 -35 36 -15 19 -39 21 -44 4z m92 -118 c0 -24 -25 -27 -34 -4
-13 33 -7 45 14 34 11 -6 20 -20 20 -30z"/>
<path d="M7120 223 c0 -4 18 -27 39 -50 21 -23 51 -58 67 -78 18 -24 30 -33
37 -26 6 6 -12 35 -53 83 -57 67 -90 93 -90 71z"/>
<path d="M7186 223 c-6 -7 93 -123 105 -123 17 0 9 15 -31 60 -22 25 -40 48
-40 51 0 10 -27 19 -34 12z"/>
<path d="M3794 185 c-24 -32 -28 -75 -5 -61 14 9 27 -15 41 -71 11 -48 15 -53
40 -53 31 0 31 -4 -5 148 -19 82 -31 89 -71 37z"/>
<path d="M5119 163 c-13 -17 -13 -17 6 -3 11 8 22 16 24 17 2 2 0 3 -6 3 -6 0
-17 -8 -24 -17z"/>
<path d="M6170 161 c5 -11 15 -23 20 -26 6 -4 8 -11 4 -16 -4 -6 -16 -1 -30
12 -33 31 -40 19 -9 -17 23 -26 27 -27 35 -12 6 9 18 14 29 11 10 -3 22 0 26
6 3 6 3 10 -2 9 -5 -2 -22 9 -38 25 -35 32 -50 35 -35 8z"/>
<path d="M7120 162 c0 -5 12 -19 26 -33 14 -13 34 -38 45 -56 12 -18 27 -33
35 -33 22 0 18 7 -37 71 -49 55 -69 70 -69 51z"/>
<path d="M6845 130 c-3 -5 -2 -10 4 -10 5 0 13 5 16 10 3 6 2 10 -4 10 -5 0
-13 -4 -16 -10z"/>
<path d="M7090 130 c0 -8 27 -43 82 -103 9 -11 21 -18 27 -16 6 2 -13 32 -41
66 -52 60 -68 73 -68 53z"/>
<path d="M6100 112 c0 -14 39 -46 47 -39 3 4 -2 16 -12 27 -19 21 -35 26 -35
12z"/>
<path d="M5099 93 c-13 -16 -12 -17 4 -4 16 13 21 21 13 21 -2 0 -10 -8 -17
-17z"/>
<path d="M6006 65 c-73 -55 -73 -55 -55 -55 17 0 128 80 129 93 0 14 -16 6
-74 -38z"/>
<path d="M7059 93 c17 -31 81 -95 91 -91 10 4 -77 108 -91 108 -6 0 -6 -7 0
-17z"/>
<path d="M5260 43 c-25 -19 -47 -37 -50 -40 -12 -13 57 28 79 47 41 35 18 30
-29 -7z"/>
<path d="M6063 52 c-17 -15 -39 -32 -50 -39 -17 -11 -17 -12 1 -12 11 -1 34
10 53 25 18 14 37 23 42 19 5 -3 13 0 17 6 5 8 3 9 -6 4 -10 -6 -12 -4 -7 8
10 26 -14 20 -50 -11z"/>
<path d="M7020 73 c1 -5 14 -23 30 -42 39 -46 58 -35 19 12 -28 34 -50 47 -49
30z"/>
<path d="M1275 40 c-3 -5 -1 -10 4 -10 6 0 11 5 11 10 0 6 -2 10 -4 10 -3 0
-8 -4 -11 -10z"/>
<path d="M6096 15 c-11 -8 -15 -15 -9 -15 19 0 43 12 43 21 0 13 -12 11 -34
-6z"/>
<path d="M6955 10 c-4 -6 3 -10 14 -10 25 0 27 6 6 13 -8 4 -17 2 -20 -3z"/>
<path d="M3703 3 c9 -2 23 -2 30 0 6 3 -1 5 -18 5 -16 0 -22 -2 -12 -5z"/>
</g>
</svg>
